<svg width="32" height="32" viewBox="0 0 32 32" fill="none" xmlns="http://www.w3.org/2000/svg">
<path d="M14.3041 18.3497L21.5879 9.33619C21.9897 8.83894 22.5568 8.54998 23.1467 8.48682C23.7353 8.42365 24.3508 8.58358 24.8547 8.98943C25.3533 9.3953 25.6382 9.95839 25.7014 10.5457C25.7645 11.1343 25.6046 11.7498 25.2001 12.2538C24.2769 13.3961 23.4101 14.5035 22.5446 15.6109C20.7197 17.9425 18.8921 20.2768 16.9421 22.4662L16.8414 22.5684C16.5229 22.8802 16.1493 23.1181 15.7475 23.2793C15.3268 23.4473 14.8699 23.532 14.4076 23.5279C13.9951 23.5253 13.5852 23.4513 13.1995 23.3129C12.8125 23.1758 12.4483 22.9729 12.1271 22.7135C10.4836 21.3992 8.51069 19.1293 6.95982 17.5784C6.50694 17.1255 6.27981 16.5287 6.27981 15.9348C6.27981 15.3407 6.50693 14.7441 6.95982 14.2912L6.99207 14.2616C7.44092 13.8289 8.02281 13.6112 8.60336 13.6112C9.19736 13.6125 9.79266 13.8396 10.2455 14.2912L14.3068 18.3498L14.3041 18.3497ZM22.3901 9.98127L14.7101 19.4799C14.5098 19.6815 14.1833 19.6829 13.9817 19.4826L9.51621 15.0207C9.26356 14.7681 8.93029 14.6417 8.59968 14.6417C8.2785 14.6444 7.95597 14.7613 7.69661 15.01C7.43456 15.2734 7.30824 15.604 7.30824 15.9346C7.30824 16.2652 7.43456 16.5971 7.68588 16.8484L12.5952 21.7579L12.7793 21.9205C13.0064 22.1019 13.2644 22.2457 13.5385 22.3425C13.8194 22.4447 14.1164 22.4984 14.4121 22.5011C14.74 22.5038 15.0625 22.4433 15.3608 22.325C15.639 22.2135 15.897 22.0495 16.1147 21.8372L16.1685 21.7821C18.1265 19.5848 19.9301 17.28 21.7321 14.9794C22.6284 13.8343 23.5248 12.6893 24.3983 11.6061C24.6214 11.3279 24.7114 10.9866 24.6751 10.656C24.6402 10.3281 24.4803 10.0136 24.2021 9.78917C23.9239 9.56608 23.5812 9.47603 23.252 9.51232C22.9241 9.54726 22.6083 9.70719 22.3852 9.98269L22.3901 9.98127ZM4.18075 6.83518L4.44146 10.8481C4.45087 11.012 4.38233 11.1773 4.24391 11.2848L0.8883 13.8988C0.763322 13.9996 0.650436 14.1125 0.552336 14.2334C0.184124 14.6876 0 15.2803 0 15.8757C0 16.4724 0.18411 17.065 0.552336 17.5233C0.650439 17.647 0.763322 17.7612 0.8883 17.862L4.13774 20.4933C4.28288 20.5955 4.37158 20.7689 4.35679 20.9584L4.00874 25.0184C3.9953 25.1474 3.99261 25.2764 4.00068 25.4028C4.03965 26.0075 4.32858 26.5733 4.76129 27.0047C5.19803 27.4401 5.77724 27.7385 6.39944 27.8083C6.54592 27.8245 6.68972 27.8285 6.8335 27.8191L10.8462 27.5584C11.0102 27.549 11.1755 27.6175 11.283 27.7559L13.8968 31.1117C13.9895 31.2273 14.093 31.3321 14.218 31.4356C14.6883 31.8159 15.2783 32 15.8736 32C16.4703 32 17.0629 31.8145 17.5212 31.4476C17.6448 31.3495 17.7591 31.2353 17.8599 31.1117L20.4898 27.8621C20.5919 27.7169 20.7653 27.6282 20.9548 27.643L25.016 27.9911C25.145 28.0045 25.274 28.0072 25.4017 27.9992C26.0064 27.9602 26.5708 27.6712 27.0022 27.2385C27.4376 26.8017 27.736 26.2225 27.8058 25.6003C27.822 25.4538 27.826 25.31 27.8166 25.1662L27.5559 21.1533C27.5465 20.9893 27.615 20.824 27.7534 20.7165L31.109 18.1026C31.2246 18.0099 31.3294 17.9064 31.4329 17.7814C31.8146 17.3097 32 16.717 32 16.1257C31.9973 15.529 31.8132 14.9364 31.4463 14.4781C31.3482 14.3544 31.2353 14.2402 31.1104 14.1394L27.8609 11.5094C27.7158 11.4072 27.6271 11.2339 27.6419 11.0444L27.9899 6.98294C28.0034 6.85392 28.006 6.72491 27.998 6.59723C27.959 5.99248 27.6714 5.42804 27.2387 4.99665C26.8006 4.55989 26.2174 4.26019 25.5965 4.19166C25.4554 4.17688 25.3103 4.17284 25.1652 4.18225L21.1524 4.44297C20.9885 4.45238 20.8232 4.38384 20.7157 4.24541L18.1019 0.889662C18.0091 0.774084 17.9057 0.669262 17.7807 0.565777C17.3103 0.185439 16.719 0 16.125 0C15.5284 0 14.9357 0.184118 14.4775 0.55236C14.3525 0.651808 14.2383 0.766041 14.1361 0.891028L11.5075 4.13792C11.4054 4.28307 11.232 4.37177 11.0426 4.35698L6.9813 4.00892C6.85229 3.99548 6.72328 3.99279 6.59696 4.00085C5.99223 4.03983 5.42647 4.32877 4.9951 4.76015C4.55835 5.1996 4.25867 5.78155 4.19014 6.40375C4.17536 6.54486 4.17133 6.69 4.18073 6.8338L4.18075 6.83518Z" fill="#EF519D"/>
</svg>
