<svg width="160" height="35" viewBox="0 0 160 35" fill="none" xmlns="http://www.w3.org/2000/svg">
<g clip-path="url(#clip0_123_375)">
<path d="M46.1637 18.2018C46.1955 17.6039 46.1955 17.0048 46.1637 16.4069H11.268C11.2607 16.5559 11.2543 16.7058 11.2506 16.8556H3.94023L3.93655 17.08H0V17.5287H3.93563L3.94115 17.7531H11.2506C11.2543 17.9038 11.2598 18.0528 11.269 18.2018H21.2874C21.2493 17.9041 21.2303 17.6044 21.2303 17.3044H35.943C35.943 17.6086 35.9246 17.9083 35.886 18.2018H46.1637ZM46.091 15.5095H35.7122C35.6315 15.2041 35.5301 14.9043 35.4087 14.6121H21.7674C21.6469 14.9028 21.5448 15.2017 21.4639 15.5095H11.3398C11.3563 15.3596 11.3747 15.2097 11.3949 15.0608H4.0846L4.11586 14.8418H0V14.3931H4.18851L4.2308 14.1633H11.5411C11.5687 14.0135 11.6 13.8636 11.6331 13.7146H45.7995C45.9283 14.3024 46.0267 14.901 46.091 15.5095ZM45.5761 12.8172H34.3301C34.0649 12.4941 33.7717 12.1938 33.4538 11.9197H23.7214C23.4041 12.1944 23.1099 12.4941 22.8451 12.8172H11.8566C11.8979 12.6673 11.9421 12.5174 11.988 12.3685H4.6777L4.75862 12.1163H0V11.6667H4.91218L4.98391 11.4701H12.2943C12.3494 11.3194 12.4083 11.1704 12.469 11.0214H44.9628C45.2 11.6047 45.4051 12.2051 45.5761 12.8172ZM44.5674 10.1249H12.8644C12.9361 9.9741 13.0097 9.82513 13.086 9.67615H5.77655L5.90621 9.42846H0V8.97974H6.1554L6.27218 8.77872H13.5825C13.6717 8.62795 13.7637 8.47808 13.8575 8.33H43.5743C43.9402 8.90615 44.2731 9.50564 44.5674 10.1249ZM11.3398 19.0992H46.092C46.0267 19.7077 45.9283 20.3072 45.7995 20.8941H34.96C35.1301 20.6069 35.2809 20.3072 35.4097 19.9967H21.7655C21.8943 20.3072 22.0441 20.6069 22.2143 20.8941H11.6322C11.5995 20.7449 11.5688 20.5954 11.5402 20.4454H4.2308C4.21583 20.3665 4.20142 20.2875 4.18759 20.2085H0V19.7597H4.11494C4.10438 19.6892 4.09427 19.6186 4.0846 19.5479H11.3949C11.3745 19.3986 11.3561 19.249 11.3398 19.0992ZM11.8556 21.7915H45.5752C45.4051 22.4045 45.2 23.0031 44.9628 23.5864H32.1517C32.6177 23.334 33.0542 23.0331 33.4538 22.689H23.7214C24.1209 23.0331 24.5575 23.334 25.0234 23.5864H12.469C12.4086 23.4376 12.3504 23.288 12.2943 23.1377H4.98391L4.90483 22.9214H0V22.4727H4.75218C4.7271 22.3954 4.70258 22.3179 4.67862 22.2403H11.988C11.9421 22.0913 11.8979 21.9423 11.8556 21.7915ZM12.8644 24.4838H44.5674C44.2734 25.101 43.9417 25.7003 43.5743 26.2787H13.8575C13.7632 26.1305 13.6712 25.9809 13.5816 25.83H6.27218C6.22621 25.7528 6.18115 25.6756 6.13701 25.5976H0V25.1488H5.88966L5.77655 24.9335H13.0869C13.0105 24.785 12.9363 24.6354 12.8644 24.4847V24.4838ZM15.5586 28.5223C15.6938 28.6749 15.8326 28.8238 15.9743 28.971H41.4575C42.0002 28.4066 42.5031 27.8069 42.9628 27.1762H14.469C14.5793 27.3278 14.6915 27.4777 14.8074 27.6249H7.49701L7.67908 27.8537H0V28.3024H8.05517C8.11862 28.3769 8.18299 28.4496 8.24828 28.5223H15.5586ZM18.6087 31.2146C18.8322 31.3699 19.0593 31.5197 19.2892 31.6633H38.1425C38.9889 31.1329 39.7869 30.5324 40.5278 29.8685H16.9048C17.0749 30.021 17.2487 30.1709 17.4253 30.3172H10.1149C10.2143 30.3997 10.3145 30.4805 10.4156 30.5595H0V31.0082H11.0087C11.1044 31.0782 11.2018 31.1473 11.2993 31.2146H18.6097H18.6087ZM25.0611 33.9823C26.24 34.2273 27.4621 34.3556 28.7154 34.3556C31.5237 34.3556 34.1766 33.7095 36.5269 32.5608H20.9039C21.2313 32.7205 21.5632 32.8704 21.9007 33.0095H14.5903C14.7209 33.0633 14.8524 33.1163 14.9839 33.1674H0V33.6162H16.2989C17.9145 34.0972 19.6294 34.3556 21.406 34.3556C22.6593 34.3556 23.8823 34.2273 25.0611 33.9823ZM14.469 7.43256H42.9628C42.5031 6.80177 42.0002 6.20211 41.4575 5.63769H15.9743C15.8326 5.78487 15.6938 5.93385 15.5577 6.08641H8.24828L8.08644 6.27128H0V6.72H7.70759C7.63678 6.80705 7.5669 6.895 7.49793 6.98385H14.8074C14.6915 7.13192 14.5793 7.2818 14.469 7.43256ZM16.9039 4.74026H40.5269C39.7863 4.07638 38.9886 3.47587 38.1425 2.94538H19.2892C19.0593 3.08987 18.8322 3.23974 18.6087 3.3941H11.2993C11.1982 3.465 11.097 3.5359 10.9977 3.60859H0V4.05731H10.4055C10.308 4.13449 10.2115 4.21256 10.1159 4.29154H17.4253C17.2487 4.43782 17.0749 4.58769 16.9039 4.74026ZM20.9048 2.04795H36.5278C34.1029 0.863724 31.4279 0.249083 28.7163 0.253077C27.4621 0.253077 26.24 0.382308 25.0611 0.627308C23.8595 0.378 22.6344 0.252569 21.406 0.253077C19.4437 0.253077 17.5577 0.568974 15.7968 1.15051H0V1.59923H21.9007C21.564 1.73853 21.2319 1.88818 20.9048 2.04795ZM102.297 0C102.901 0 103.376 0.147179 103.72 0.441539C104.08 0.722436 104.259 1.11462 104.259 1.62077C104.259 2.12603 104.08 2.52538 103.72 2.81974C103.376 3.10064 102.901 3.24154 102.297 3.24154C101.694 3.24154 101.212 3.10064 100.852 2.81974C100.508 2.52538 100.335 2.12603 100.335 1.62077C100.335 1.11551 100.508 0.723333 100.852 0.441539C101.212 0.147179 101.694 0 102.297 0ZM103.979 5.19795V14.3527C103.979 14.9423 104.08 15.3426 104.281 15.5526C104.497 15.7635 104.856 15.8685 105.359 15.8685V16.31C104.957 16.2908 104.554 16.2768 104.152 16.2678C103.599 16.2396 103.045 16.2255 102.491 16.2256C101.931 16.2256 101.363 16.24 100.788 16.2678C100.357 16.2771 99.9253 16.2912 99.4942 16.31V15.8685C99.9972 15.8685 100.349 15.7635 100.551 15.5526C100.766 15.3426 100.874 14.9423 100.874 14.3527V7.72333C100.874 7.09244 100.773 6.62846 100.572 6.335C100.385 6.02628 100.026 5.87192 99.4942 5.87192V5.42949C99.954 5.47167 100.4 5.49231 100.831 5.49231C101.434 5.49231 101.995 5.47167 102.513 5.42949C103.045 5.37385 103.534 5.29667 103.979 5.19795Z" fill="#2F2352"/>
<path fill-rule="evenodd" clip-rule="evenodd" d="M110.048 7.12919V5.1979C109.603 5.29662 109.114 5.3738 108.582 5.42944C108.05 5.47162 107.489 5.49226 106.9 5.49226C106.468 5.49226 106.023 5.47162 105.562 5.42944V5.87188C106.08 5.87188 106.44 6.02624 106.641 6.33495C106.842 6.62931 106.943 7.09239 106.943 7.72329V18.2466C106.943 18.8075 106.842 19.1862 106.641 19.3828C106.454 19.5793 106.123 19.6771 105.649 19.6771V20.1196L106.792 20.0567C107.317 20.0425 107.841 20.0353 108.366 20.0352C109.099 20.0352 109.79 20.0424 110.436 20.0559C111.097 20.0846 111.615 20.1052 111.989 20.1187V19.6771C111.385 19.6771 110.911 19.565 110.566 19.3406C110.221 19.1306 110.048 18.6953 110.048 18.0357V15.9267C110.237 16.0811 110.46 16.2085 110.717 16.31C111.176 16.5074 111.687 16.6052 112.248 16.6052C113.01 16.6052 113.692 16.4715 114.296 16.205C114.91 15.9413 115.45 15.5372 115.871 15.0266C116.316 14.4935 116.654 13.8411 116.884 13.0693C117.128 12.2975 117.251 11.4001 117.251 10.3752C117.251 9.21124 117.078 8.2429 116.733 7.47111C116.388 6.68495 115.928 6.10342 115.353 5.7247C114.778 5.33183 114.092 5.12553 113.391 5.13508C112.557 5.13508 111.824 5.34508 111.191 5.76598C110.694 6.09354 110.313 6.54765 110.048 7.13008V7.12919ZM110.048 7.85252V15.4816C110.168 15.6198 110.312 15.7347 110.479 15.8262C110.752 15.9662 111.061 16.0362 111.407 16.0362C112.054 16.0362 112.564 15.8262 112.938 15.4053C113.311 14.9701 113.577 14.367 113.735 13.5952C113.908 12.81 113.995 11.8766 113.995 10.7961C113.995 9.58995 113.916 8.64226 113.757 7.95483C113.599 7.26739 113.383 6.77649 113.11 6.48213C112.837 6.18688 112.507 6.0397 112.118 6.0397C111.601 6.0397 111.127 6.23713 110.695 6.62931C110.371 6.93444 110.155 7.34278 110.048 7.85252Z" fill="#2F2352"/>
<path d="M122.201 5.13509C122.805 5.13509 123.329 5.21227 123.775 5.36663C124.235 5.50663 124.566 5.64753 124.768 5.78753C125.256 6.1106 125.558 5.89971 125.673 5.15573H126.126C126.097 5.54881 126.075 6.03342 126.061 6.60778C126.047 7.16958 126.039 7.91983 126.039 8.86035H125.587C125.513 8.33414 125.376 7.81838 125.177 7.32394C124.994 6.84408 124.69 6.41693 124.293 6.08189C123.919 5.75881 123.431 5.59727 122.826 5.59727C122.41 5.59727 122.058 5.71753 121.77 5.95624C121.482 6.1806 121.339 6.50996 121.339 6.94522C121.339 7.36612 121.468 7.73766 121.727 8.06073C121.986 8.36945 122.316 8.67099 122.719 8.96535C123.135 9.24624 123.567 9.54778 124.013 9.86996C124.487 10.2209 124.918 10.5718 125.306 10.9227C125.679 11.24 125.992 11.6173 126.233 12.0382C126.464 12.4447 126.579 12.9284 126.579 13.4902C126.579 14.1211 126.392 14.6748 126.018 15.1523C125.644 15.6153 125.148 15.9734 124.53 16.2256C123.926 16.4787 123.25 16.6052 122.504 16.6052C122.112 16.6096 121.72 16.5671 121.339 16.4787C121.04 16.406 120.75 16.3 120.476 16.1628C120.289 16.0784 120.109 16.0012 119.937 15.9312C119.791 15.8525 119.639 15.7824 119.484 15.7212C119.341 15.6791 119.211 15.7275 119.096 15.8684C118.996 16.0084 118.917 16.205 118.859 16.4571H118.406C118.435 16.0084 118.457 15.461 118.471 14.8157C118.485 14.1705 118.493 13.3143 118.493 12.2491H118.945C119.032 13.0065 119.19 13.6796 119.42 14.2683C119.649 14.8444 119.958 15.3003 120.346 15.6369C120.749 15.96 121.252 16.1215 121.856 16.1215C122.101 16.1215 122.338 16.0721 122.568 15.9734C122.798 15.8747 122.985 15.7132 123.129 15.4888C123.287 15.2645 123.366 14.9773 123.366 14.6273C123.366 14.0089 123.158 13.4965 122.74 13.09C122.338 12.6834 121.821 12.241 121.188 11.7645C120.728 11.3992 120.289 11.042 119.873 10.6911C119.487 10.3462 119.153 9.94945 118.881 9.51278C118.618 9.06452 118.484 8.55549 118.493 8.03919C118.493 7.4083 118.665 6.87522 119.009 6.43996C119.361 6.00017 119.832 5.66484 120.369 5.47163C120.952 5.24572 121.574 5.13146 122.201 5.13509ZM148.97 5.36663C148.596 5.21227 148.107 5.13509 147.503 5.13509C146.827 5.12839 146.16 5.28762 145.563 5.59817C144.974 5.89253 144.506 6.3906 144.161 7.0924V5.19881C143.716 5.29663 143.226 5.37381 142.695 5.42945C142.177 5.47163 141.616 5.49227 141.013 5.49227C140.582 5.49227 140.136 5.47163 139.676 5.42945V5.87189C140.208 5.87189 140.567 6.02624 140.754 6.33496C140.955 6.62932 141.055 7.0924 141.055 7.7233V14.3527C141.055 14.9423 140.948 15.3425 140.733 15.5525C140.531 15.7634 140.179 15.8684 139.676 15.8684V16.31C140.107 16.2911 140.539 16.2771 140.97 16.2678C141.53 16.2401 142.091 16.226 142.652 16.2256C143.155 16.2256 143.644 16.24 144.118 16.2678C144.607 16.2821 144.966 16.2965 145.196 16.31V15.8684C144.823 15.8684 144.556 15.7634 144.398 15.5525C144.24 15.3425 144.161 14.9423 144.161 14.3527V8.50227C144.161 8.03919 144.255 7.62548 144.441 7.26022C144.643 6.8815 144.901 6.58714 145.217 6.37714C145.521 6.17056 145.883 6.06027 146.253 6.06124C146.584 6.06124 146.827 6.13842 146.986 6.29278C147.158 6.43278 147.273 6.6365 147.331 6.90304C147.388 7.15522 147.417 7.45676 147.417 7.80765V14.3527C147.417 14.9423 147.338 15.3425 147.18 15.5525C147.036 15.7634 146.77 15.8684 146.382 15.8684V16.31C146.641 16.2965 147.021 16.2821 147.525 16.2678C148.545 16.211 149.568 16.211 150.587 16.2678C151.119 16.2821 151.514 16.2965 151.773 16.31V15.8684C151.313 15.8684 150.989 15.7634 150.803 15.5525C150.616 15.3425 150.522 14.9423 150.522 14.3527V8.5956L150.521 8.53009L150.518 8.3174C150.551 7.96561 150.647 7.62229 150.803 7.3033C151.004 6.92368 151.262 6.62214 151.579 6.39778C151.895 6.17342 152.241 6.06124 152.614 6.06124C152.987 6.06124 153.261 6.13842 153.433 6.29278C153.62 6.43278 153.742 6.6365 153.8 6.90304C153.872 7.15522 153.908 7.45676 153.908 7.80765V14.3527C153.908 14.9423 153.829 15.3425 153.671 15.5525C153.527 15.7634 153.261 15.8684 152.872 15.8684V16.31C153.132 16.2965 153.512 16.2821 154.015 16.2678C154.525 16.2395 155.036 16.2255 155.546 16.2256C156.079 16.2256 156.618 16.24 157.164 16.2678C157.71 16.2821 158.12 16.2965 158.393 16.31V15.8684C157.89 15.8684 157.531 15.7634 157.315 15.5525C157.113 15.3425 157.013 14.9423 157.013 14.3527V8.69163C157.013 7.98983 156.963 7.42894 156.862 7.00804C156.761 6.57278 156.597 6.22278 156.366 5.95624C156.136 5.70317 155.834 5.50753 155.46 5.36663C155.087 5.21227 154.598 5.13509 153.994 5.13509C153.261 5.13509 152.571 5.28227 151.924 5.57663C151.305 5.8656 150.803 6.41663 150.417 7.22971C150.404 7.15542 150.389 7.0815 150.371 7.00804C150.271 6.57278 150.106 6.22278 149.876 5.95624C149.646 5.70317 149.343 5.50753 148.97 5.36663ZM137.984 14.0161V5.19791C137.538 5.29663 137.05 5.37381 136.518 5.42945C136.001 5.47163 135.44 5.49227 134.836 5.49227C134.404 5.49227 133.959 5.47163 133.499 5.42945V5.87189C134.031 5.87189 134.391 6.02624 134.577 6.33496C134.779 6.62932 134.879 7.0924 134.879 7.7233V13.2371C134.879 13.7002 134.779 14.1211 134.577 14.4998C134.407 14.8466 134.146 15.1441 133.822 15.3632C133.521 15.5738 133.158 15.6845 132.787 15.6791C132.428 15.6791 132.155 15.6082 131.968 15.4682C131.774 15.3027 131.638 15.082 131.58 14.8373C131.519 14.5322 131.49 14.2219 131.493 13.9111V5.19791C131.048 5.29663 130.559 5.37381 130.027 5.42945C129.51 5.47163 128.949 5.49227 128.346 5.49227C127.914 5.49227 127.468 5.47163 127.009 5.42945V5.87189C127.54 5.87189 127.9 6.02624 128.086 6.33496C128.288 6.62932 128.388 7.0924 128.388 7.7233V13.0478C128.388 13.7352 128.438 14.297 128.54 14.7314C128.64 15.1666 128.813 15.5175 129.056 15.7841C129.272 16.0228 129.567 16.2193 129.941 16.3737C130.314 16.5271 130.803 16.6052 131.408 16.6052C132.155 16.6052 132.83 16.4571 133.434 16.1628C134.052 15.8541 134.534 15.3488 134.879 14.6479V16.5415C135.361 16.4258 135.851 16.3483 136.346 16.31C136.863 16.2678 137.423 16.2471 138.027 16.2471C138.473 16.2471 138.918 16.2678 139.364 16.31V15.8684C138.847 15.8684 138.487 15.7212 138.286 15.426C138.084 15.1173 137.984 14.6479 137.984 14.017V14.0161Z" fill="#2F2352"/>
<path fill-rule="evenodd" clip-rule="evenodd" d="M96.2721 5.70323C95.4813 5.32452 94.5609 5.13516 93.5117 5.13516C92.491 5.13516 91.5779 5.32452 90.7733 5.70323C89.9825 6.08195 89.3572 6.69221 88.8974 7.534C88.4514 8.3758 88.228 9.49131 88.228 10.8805C88.228 12.2698 88.4514 13.3844 88.8965 14.2271C89.3563 15.0545 89.9816 15.6576 90.7724 16.0363C91.5779 16.415 92.491 16.6053 93.5117 16.6053C94.5609 16.6053 95.4813 16.415 96.2721 16.0363C97.062 15.6576 97.6809 15.0545 98.1259 14.2271C98.5719 13.3853 98.7944 12.2698 98.7944 10.8805C98.7944 9.49131 98.5719 8.3767 98.1259 7.534C97.6809 6.69221 97.062 6.08195 96.2721 5.70323ZM92.0671 6.81875C92.4551 5.97695 92.937 5.55605 93.5117 5.55605C94.1011 5.55605 94.5829 5.97695 94.9563 6.81875C95.3443 7.64618 95.5383 9.00041 95.5383 10.8805C95.5383 12.7607 95.3443 14.1149 94.9563 14.9423C94.5829 15.7698 94.1011 16.1844 93.5117 16.1844C92.937 16.1844 92.4551 15.7698 92.0671 14.9423C91.679 14.1149 91.485 12.7607 91.485 10.8805C91.485 9.00041 91.6781 7.64618 92.0671 6.81875ZM81.1963 20.2668C80.3043 20.2668 79.5071 20.1896 78.8027 20.0353C78.113 19.8953 77.5668 19.6709 77.1641 19.3622C76.776 19.067 76.582 18.7026 76.582 18.2673C76.582 17.8321 76.7825 17.4399 77.1852 17.089C77.588 16.7525 78.1848 16.4859 78.9756 16.2894L79.1687 16.6259C78.9218 16.8069 78.7163 17.0361 78.5655 17.299C78.4505 17.5521 78.3926 17.8114 78.3926 18.078C78.3926 18.6676 78.6657 19.1163 79.2128 19.4241C79.7737 19.7472 80.5278 19.9087 81.4767 19.9087C82.1232 19.9087 82.6988 19.8244 83.2018 19.6566C83.7195 19.4878 84.1213 19.2348 84.4091 18.8991C84.7117 18.5617 84.8625 18.148 84.8625 17.6571C84.8625 17.2362 84.7043 16.8781 84.388 16.5837C84.0717 16.3028 83.439 16.1628 82.4901 16.1628H81.153C80.5645 16.1628 80.0459 16.1 79.6009 15.9735C79.1687 15.8478 78.8312 15.6504 78.5866 15.3839C78.3429 15.1039 78.2206 14.753 78.2206 14.3321C78.2206 13.7425 78.4579 13.2237 78.9324 12.7741C79.3038 12.4223 79.817 12.0876 80.4717 11.7708C80.0412 11.7186 79.6185 11.6177 79.2119 11.4702C78.5655 11.2314 78.0551 10.8662 77.6818 10.3753C77.3075 9.88439 77.1209 9.25349 77.1209 8.4817C77.1209 7.7099 77.3075 7.07811 77.6818 6.58721C78.0551 6.08195 78.5655 5.7167 79.2128 5.49234C79.8593 5.25452 80.5921 5.13516 81.4114 5.13516C82.2317 5.13516 82.9645 5.25452 83.611 5.49323C84.0376 5.64041 84.4036 5.84952 84.7117 6.11875C84.8947 5.86118 85.1172 5.63144 85.3793 5.42952C85.8684 5.06516 86.3935 4.88208 86.9535 4.88208C87.4133 4.88208 87.759 5.00862 87.9889 5.2617C88.2335 5.49952 88.3558 5.81541 88.3558 6.20849C88.3558 6.62939 88.2399 6.94439 88.0101 7.15529C87.7802 7.35272 87.5218 7.45054 87.234 7.45054C86.9809 7.44727 86.7369 7.35775 86.5443 7.19747C86.342 7.02875 86.228 6.77657 86.1995 6.44003C86.1747 6.13849 86.2611 5.76516 86.4588 5.31823C86.0395 5.49234 85.7158 5.69067 85.4878 5.91413C85.3158 6.0759 85.1657 6.25835 85.0409 6.45708C85.0758 6.49926 85.1098 6.54323 85.142 6.58721C85.5163 7.07811 85.7029 7.709 85.7029 8.4808C85.7029 9.25259 85.5163 9.88439 85.142 10.3753C84.7687 10.8662 84.2583 11.2314 83.611 11.4702C82.9645 11.708 82.2317 11.8273 81.4114 11.8273C81.2888 11.8275 81.1661 11.8248 81.0436 11.8193C80.8496 11.9476 80.6629 12.084 80.4845 12.2276C80.3738 12.3122 80.2848 12.421 80.225 12.5452C80.1651 12.6694 80.1359 12.8056 80.1397 12.9429C80.1397 13.3916 80.4275 13.6159 81.0022 13.6159H83.3526C84.1434 13.6159 84.8478 13.7075 85.4657 13.8896C86.0983 14.0727 86.594 14.3743 86.9535 14.7952C87.3278 15.2017 87.5144 15.7348 87.5144 16.3944C87.5144 17.0818 87.2845 17.7199 86.8248 18.3095C86.3788 18.8991 85.6891 19.3685 84.754 19.7194C83.8197 20.0846 82.6335 20.2668 81.1963 20.2668ZM81.4114 11.4486C81.8004 11.4486 82.1011 11.2386 82.3172 10.8177C82.5333 10.3825 82.6409 9.60349 82.6409 8.4817C82.6409 7.359 82.5333 6.58721 82.3172 6.16631C82.102 5.73105 81.8004 5.51387 81.4124 5.51387C81.0381 5.51387 80.7365 5.73105 80.5066 6.16631C80.2905 6.58721 80.1829 7.359 80.1829 8.4817C80.1829 9.60349 80.2905 10.3825 80.5066 10.8177C80.7365 11.2386 81.0381 11.4486 81.4114 11.4486ZM73.7903 5.70323C72.9995 5.32452 72.0799 5.13516 71.0308 5.13516C70.0101 5.13516 69.097 5.32452 68.2924 5.70323C67.5016 6.08195 66.8763 6.69221 66.4165 7.534C65.9705 8.3758 65.7471 9.49131 65.7471 10.8805C65.7471 12.2698 65.9705 13.3844 66.4156 14.2271C66.8753 15.0545 67.5006 15.6576 68.2914 16.0363C69.097 16.415 70.0101 16.6053 71.0308 16.6053C72.0799 16.6053 73.0004 16.415 73.7903 16.0363C74.5811 15.6576 75.199 15.0545 75.645 14.2271C76.091 13.3853 76.3135 12.2698 76.3135 10.8805C76.3135 9.49131 76.091 8.3767 75.645 7.534C75.1999 6.69221 74.5811 6.08195 73.7903 5.70323ZM69.5852 6.81875C69.9742 5.97695 70.4551 5.55605 71.0308 5.55605C71.6193 5.55605 72.1011 5.97695 72.4744 6.81875C72.8634 7.64618 73.0574 9.00041 73.0574 10.8805C73.0574 12.7607 72.8634 14.1149 72.4753 14.9423C72.1011 15.7698 71.6202 16.1844 71.0308 16.1844C70.4551 16.1844 69.9733 15.7698 69.5852 14.9423C69.1972 14.1149 69.0032 12.7607 69.0032 10.8805C69.0032 9.00041 69.1972 7.64618 69.5852 6.81875Z" fill="#2F2352"/>
<path d="M59.9392 1.40991V1.83171C59.4509 1.84517 59.0767 1.90081 58.8183 1.99953C58.7 2.03861 58.5931 2.10493 58.5067 2.19288C58.4202 2.28084 58.3568 2.38782 58.3217 2.50478C58.2362 2.7426 58.193 3.12222 58.193 3.64094V14.3321C58.193 14.7664 58.2215 15.0895 58.2794 15.3004C58.3511 15.5104 58.4808 15.6504 58.6675 15.7213C58.8688 15.7913 59.164 15.8263 59.5511 15.8263H60.6086C61.096 15.8263 61.5567 15.7141 61.9879 15.4898C62.4201 15.2654 62.8072 14.9495 63.1521 14.5421C63.5158 14.0896 63.8069 13.5857 64.0155 13.0479C64.2454 12.4735 64.4173 11.8345 64.5323 11.1327H65.0288C64.9856 11.6102 64.9645 12.2276 64.9645 12.985C64.9645 13.3081 64.9709 13.7775 64.9856 14.3949C65.0003 15.0123 65.0426 15.6513 65.1144 16.31C64.2884 16.2803 63.4618 16.2663 62.6353 16.2679C61.7157 16.2544 60.8955 16.2472 60.1764 16.2472H58.7971C58.2362 16.2472 57.6321 16.2544 56.9856 16.2679C56.3383 16.2679 55.6845 16.275 55.0233 16.2894C54.3613 16.2894 53.736 16.2966 53.1475 16.31V15.8891C53.6072 15.8613 53.9521 15.8048 54.1819 15.7213C54.4118 15.637 54.5626 15.4682 54.6353 15.2161C54.7208 14.963 54.764 14.5843 54.764 14.079V3.64094C54.764 3.12132 54.7208 2.7435 54.6353 2.50478C54.607 2.38804 54.5485 2.28031 54.4654 2.19187C54.3824 2.10343 54.2775 2.03721 54.1608 1.99953C53.9309 1.90081 53.5925 1.84517 53.1475 1.83081V1.40991C54.2826 1.45096 55.4184 1.4719 56.5544 1.47273C57.187 1.47273 57.8049 1.46645 58.4082 1.45209C59.027 1.43773 59.5373 1.42427 59.9392 1.40991Z" fill="#2F2352"/>
<path fill-rule="evenodd" clip-rule="evenodd" d="M156.203 33.7014C156.173 33.5507 156.193 33.3541 156.266 33.1118L159.303 22.3722C158.817 22.5668 158.314 22.7185 157.8 22.8254C157.273 22.9268 156.669 22.9816 155.986 22.9923L155.878 23.31C156.384 23.31 156.7 23.3908 156.824 23.5523C156.947 23.7139 156.963 23.9651 156.87 24.308L156.151 26.9545C156.106 26.8268 156.028 26.7125 155.925 26.6224C155.749 26.4609 155.506 26.3801 155.196 26.3801C154.577 26.3801 154.003 26.5166 153.476 26.7885C152.946 27.0711 152.469 27.4395 152.065 27.878C151.641 28.3223 151.282 28.8211 150.996 29.3605C150.715 29.8855 150.491 30.4381 150.329 31.0091C150.182 31.501 150.104 32.0099 150.097 32.5222C150.097 33.0059 150.175 33.4044 150.329 33.7167C150.485 34.0191 150.696 34.2462 150.965 34.3969C151.233 34.5387 151.533 34.6087 151.864 34.6087C152.37 34.6087 152.825 34.4633 153.228 34.1708C153.63 33.8683 154.007 33.4044 154.36 32.7789C154.507 32.524 154.655 32.2377 154.802 31.92L154.7 32.2951C154.607 32.5906 154.544 32.8946 154.514 33.2024C154.494 33.4645 154.514 33.6871 154.577 33.8683C154.7 34.3619 155.082 34.6096 155.723 34.6096C155.961 34.6096 156.203 34.5639 156.452 34.4732C156.7 34.3826 156.932 34.2264 157.149 34.0039C157.377 33.7822 157.557 33.4654 157.691 33.0508L158.064 31.9469H157.769L157.521 32.6272C157.335 33.1423 157.16 33.4896 156.994 33.6709C156.839 33.8432 156.679 33.9285 156.513 33.9285C156.338 33.9285 156.235 33.8531 156.203 33.7014ZM155.377 29.8066C155.26 30.1754 155.133 30.5263 154.995 30.8574C154.737 31.5036 154.463 32.0582 154.173 32.5222C153.894 32.9754 153.62 33.3281 153.352 33.5812C153.083 33.8226 152.845 33.9437 152.639 33.9437C152.442 33.9437 152.298 33.8531 152.205 33.6718C152.122 33.4798 152.081 33.1926 152.081 32.8094C152.081 32.2646 152.143 31.71 152.267 31.1455C152.391 30.5712 152.561 30.021 152.778 29.4969C152.978 29.0051 153.227 28.5337 153.522 28.0898C153.802 27.6662 154.096 27.3332 154.406 27.0909C154.726 26.8486 155.041 26.7283 155.351 26.7283C155.558 26.7283 155.723 26.7992 155.847 26.9401C155.934 27.0317 156 27.1645 156.046 27.3404L155.377 29.8066Z" fill="#2F2352"/>
<path d="M145.89 34.3969H143.983L145.843 27.878C145.937 27.5755 145.967 27.3637 145.936 27.2426C145.905 27.1214 145.812 27.0613 145.657 27.0613C145.461 27.0613 145.28 27.1573 145.114 27.3485C144.949 27.5396 144.779 27.878 144.603 28.3626L144.339 29.0725H144.045L144.448 27.9381C144.593 27.5343 144.773 27.2228 144.99 27.0003C145.207 26.7687 145.445 26.6072 145.704 26.5166C145.962 26.4259 146.225 26.3802 146.494 26.3802C146.825 26.3802 147.068 26.4457 147.222 26.5776C147.388 26.7086 147.491 26.88 147.533 27.0918C147.585 27.3201 147.595 27.5556 147.563 27.7873C147.543 28.0296 147.502 28.2666 147.439 28.4981L147.19 29.4467L147.253 29.2852C147.543 28.569 147.822 27.9991 148.09 27.5755C148.37 27.1421 148.664 26.8343 148.974 26.653C149.277 26.4729 149.626 26.3784 149.982 26.3802C150.353 26.3802 150.637 26.486 150.834 26.6978C151.041 26.9096 151.144 27.1717 151.144 27.4849C151.144 27.7362 151.081 27.974 150.958 28.1957C150.838 28.4037 150.667 28.5801 150.462 28.7099C150.266 28.831 150.039 28.8912 149.78 28.8912C149.522 28.8912 149.315 28.8257 149.159 28.6946C149.015 28.5636 148.942 28.3716 148.942 28.1203C148.942 27.8977 148.995 27.6967 149.098 27.5145C149.197 27.3371 149.335 27.1826 149.501 27.0613C149.666 26.9303 149.847 26.8396 150.043 26.7885C150.021 26.7677 149.995 26.7523 149.966 26.7436C149.931 26.7329 149.894 26.7278 149.857 26.7284C149.63 26.7284 149.398 26.8091 149.159 26.9707C148.922 27.1214 148.674 27.3691 148.416 27.7119C148.157 28.0548 147.894 28.508 147.626 29.0725C147.323 29.74 147.054 30.4216 146.819 31.115C146.702 31.4507 146.585 31.8114 146.467 32.1982L145.89 34.3969Z" fill="#2F2352"/>
<path fill-rule="evenodd" clip-rule="evenodd" d="M140.098 32.06L140.033 32.2951C139.935 32.6367 139.868 32.9859 139.832 33.3389C139.801 33.6619 139.852 33.9339 139.986 34.1555C140.193 34.458 140.544 34.6096 141.04 34.6096C141.278 34.6096 141.515 34.5639 141.754 34.4732C142.001 34.3826 142.234 34.2264 142.451 34.0039C142.668 33.7723 142.849 33.4492 142.993 33.0364L143.381 31.9326H143.086L142.853 32.6128C142.668 33.1369 142.487 33.4851 142.312 33.6565C142.136 33.8271 141.965 33.9132 141.8 33.9132C141.665 33.9132 141.578 33.8728 141.537 33.7921C141.504 33.6893 141.494 33.5812 141.505 33.4744C141.526 33.3461 141.557 33.2198 141.598 33.0966L143.598 26.3801C143.287 26.4527 142.971 26.5034 142.652 26.5318C142.332 26.5623 141.986 26.5821 141.614 26.5919L141.389 27.4014C141.38 27.1959 141.319 26.9958 141.211 26.819C141.13 26.6811 141.013 26.5674 140.87 26.4901C140.728 26.4127 140.567 26.3747 140.405 26.3801C139.95 26.3801 139.496 26.5166 139.041 26.7885C138.557 27.0852 138.124 27.4526 137.755 27.878C137.337 28.3418 136.973 28.8489 136.669 29.3901C136.365 29.9329 136.121 30.5061 135.941 31.0998C135.772 31.6339 135.684 32.1893 135.678 32.7483C135.678 33.3137 135.812 33.7669 136.081 34.1098C136.349 34.4427 136.762 34.6087 137.321 34.6087C137.713 34.6087 138.09 34.4983 138.452 34.2767C138.824 34.0541 139.175 33.6862 139.506 33.1728C139.711 32.8632 139.908 32.4926 140.098 32.06ZM138.762 33.5955C138.524 33.8073 138.313 33.9132 138.127 33.9132C137.972 33.9132 137.853 33.8378 137.77 33.6862C137.698 33.5246 137.662 33.2581 137.662 32.8848C137.662 32.3499 137.723 31.8007 137.847 31.2362C137.972 30.6708 138.137 30.1269 138.344 29.6028C138.561 29.0778 138.798 28.6094 139.057 28.1957C139.315 27.7828 139.573 27.4544 139.832 27.2121C140.1 26.9698 140.353 26.8495 140.591 26.8495C140.839 26.8495 141.014 26.9707 141.118 27.2121C141.221 27.431 141.248 27.7245 141.198 28.0916L140.74 29.7446L140.793 29.4817C140.627 30.1269 140.43 30.7219 140.203 31.2667C140.006 31.7537 139.767 32.224 139.491 32.673C139.242 33.066 139 33.3739 138.762 33.5955ZM133.595 33.1118C133.522 33.3541 133.502 33.5507 133.533 33.7014C133.563 33.8531 133.667 33.9285 133.843 33.9285C134.008 33.9285 134.168 33.8432 134.323 33.6718C134.488 33.4896 134.664 33.1423 134.85 32.6272L135.098 31.9469H135.392L135.021 33.0508C134.887 33.4645 134.705 33.7822 134.478 34.0039C134.285 34.21 134.046 34.3705 133.78 34.4732C133.548 34.5613 133.301 34.6075 133.052 34.6096C132.412 34.6096 132.029 34.3619 131.905 33.8683C131.84 33.6525 131.819 33.4262 131.844 33.2024C131.864 32.9404 131.926 32.6371 132.029 32.2951L132.132 31.92C131.984 32.2377 131.835 32.524 131.688 32.7789C131.337 33.4044 130.96 33.8683 130.557 34.1699C130.165 34.4594 129.685 34.614 129.193 34.6096C128.863 34.6096 128.563 34.5378 128.294 34.3978C128.017 34.238 127.796 34.0007 127.659 33.7167C127.504 33.4044 127.426 33.0059 127.426 32.5222C127.426 32.0582 127.504 31.553 127.659 31.0091C127.813 30.4545 128.036 29.9053 128.325 29.3605C128.611 28.8213 128.97 28.3225 129.394 27.878C129.818 27.4239 130.288 27.0613 130.805 26.7885C131.335 26.5155 131.926 26.3752 132.525 26.3801C132.835 26.3801 133.078 26.4609 133.253 26.6224C133.355 26.7095 133.431 26.8199 133.481 26.9545L134.199 24.308C134.292 23.9651 134.277 23.713 134.153 23.5514C134.029 23.3899 133.713 23.3091 133.207 23.3091L133.316 22.9923C133.924 22.9889 134.531 22.9331 135.129 22.8254C135.643 22.7185 136.146 22.5668 136.633 22.3722L133.595 33.1118ZM132.324 30.8574C132.462 30.5254 132.589 30.1754 132.705 29.8066L133.376 27.3404C133.343 27.1932 133.275 27.0558 133.176 26.9401C133.115 26.8706 133.039 26.8154 132.953 26.7788C132.867 26.7421 132.774 26.7248 132.681 26.7283C132.371 26.7283 132.055 26.8495 131.735 27.0909C131.424 27.3332 131.13 27.6662 130.852 28.0898C130.556 28.5332 130.307 29.0043 130.108 29.496C129.887 30.03 129.716 30.582 129.596 31.1455C129.474 31.6921 129.412 32.2499 129.41 32.8094C129.41 33.1926 129.451 33.4798 129.534 33.6709C129.627 33.8531 129.772 33.9437 129.968 33.9437C130.175 33.9437 130.412 33.8226 130.681 33.5803C130.95 33.329 131.223 32.9754 131.503 32.5213C131.825 31.9907 132.099 31.434 132.324 30.8574Z" fill="#2F2352"/>
<path d="M118.891 34.3969H120.797L120.977 33.7131L120.967 33.7624C121.164 33.0562 121.386 32.3759 121.634 31.7199C121.875 31.0938 122.144 30.4782 122.44 29.8747C122.719 29.3094 122.998 28.8158 123.277 28.3922C123.556 27.9686 123.824 27.641 124.083 27.4086C124.341 27.1663 124.578 27.046 124.795 27.046C124.971 27.046 125.08 27.1062 125.121 27.2273C125.164 27.3648 125.169 27.5108 125.137 27.6509C125.106 27.8148 125.064 27.9767 125.012 28.1355L123.603 32.2951C123.458 32.7187 123.375 33.0813 123.355 33.3837C123.333 33.6862 123.39 33.9338 123.525 34.125C123.629 34.2767 123.773 34.3924 123.959 34.4732C124.155 34.5629 124.388 34.6096 124.657 34.6096C124.904 34.6096 125.152 34.5638 125.401 34.4732C125.659 34.3924 125.896 34.2408 126.113 34.0191C126.34 33.7974 126.527 33.4744 126.671 33.0508L127.058 31.9469H126.764L126.516 32.6272C126.32 33.1522 126.134 33.4995 125.959 33.6709C125.793 33.8432 125.633 33.9285 125.478 33.9285C125.312 33.9285 125.209 33.8629 125.168 33.731C125.127 33.591 125.152 33.3837 125.245 33.1118L126.764 28.6641C126.898 28.271 126.966 27.9031 126.966 27.5603C126.976 27.2076 126.878 26.9249 126.671 26.7131C126.475 26.4914 126.123 26.381 125.618 26.381C125.235 26.381 124.868 26.4618 124.517 26.6224C124.166 26.784 123.824 27.0658 123.494 27.4696C123.163 27.8627 122.822 28.3976 122.471 29.0724C122.238 29.5277 122.024 29.992 121.83 30.4644L122.347 28.4981C122.409 28.2558 122.455 28.0135 122.487 27.772C122.518 27.5208 122.507 27.2928 122.455 27.0909C122.406 26.8824 122.279 26.6992 122.099 26.5767C121.924 26.4456 121.665 26.3801 121.324 26.3801C120.91 26.3801 120.533 26.4914 120.192 26.7131C119.852 26.9347 119.572 27.3431 119.355 27.9381L118.953 29.0724H119.247L119.511 28.3617C119.697 27.8681 119.867 27.5297 120.022 27.3485C120.188 27.1573 120.368 27.0613 120.565 27.0613C120.709 27.0613 120.797 27.1017 120.829 27.1824C120.869 27.2632 120.88 27.3637 120.859 27.4849C120.836 27.6175 120.805 27.7488 120.766 27.8779L118.891 34.3969Z" fill="#2F2352"/>
<path fill-rule="evenodd" clip-rule="evenodd" d="M114.941 32.2951L115.006 32.06C114.841 32.4463 114.642 32.8185 114.414 33.1728C114.083 33.6862 113.732 34.055 113.359 34.2767C112.998 34.4983 112.621 34.6087 112.228 34.6087C111.67 34.6087 111.257 34.4427 110.989 34.1097C110.719 33.7669 110.585 33.3137 110.585 32.7483C110.585 32.2242 110.673 31.675 110.849 31.0997C111.028 30.5061 111.272 29.9329 111.577 29.3901C111.881 28.8487 112.245 28.3416 112.662 27.8779C113.031 27.4526 113.465 27.0851 113.949 26.7885C114.403 26.5165 114.858 26.3801 115.312 26.3801C115.664 26.3801 115.932 26.5264 116.119 26.8199C116.218 26.9697 116.278 27.1636 116.297 27.4014L116.522 26.5919C116.893 26.5821 117.24 26.5623 117.56 26.5318C117.891 26.5013 118.205 26.451 118.505 26.3801L116.506 33.0974C116.464 33.2205 116.433 33.3469 116.413 33.4753C116.401 33.5821 116.412 33.6902 116.444 33.7929C116.486 33.8737 116.573 33.9141 116.707 33.9141C116.873 33.9141 117.043 33.8288 117.219 33.6574C117.394 33.486 117.575 33.1369 117.761 32.6137L117.994 31.9326H118.288L117.901 33.0364C117.756 33.4501 117.575 33.7723 117.358 34.0056C117.165 34.2112 116.927 34.3714 116.661 34.4741C116.434 34.5629 116.192 34.6092 115.948 34.6105C115.452 34.6105 115.101 34.4588 114.894 34.1564C114.76 33.9347 114.708 33.6628 114.739 33.3397C114.776 32.9868 114.843 32.6367 114.941 32.2951ZM113.034 33.9132C113.22 33.9132 113.432 33.8073 113.67 33.5955C113.907 33.3738 114.15 33.066 114.398 32.6729C114.646 32.2799 114.884 31.8114 115.111 31.2667C115.338 30.7219 115.535 30.1269 115.7 29.4808L115.648 29.7446L116.106 28.0924C116.155 27.7245 116.128 27.431 116.026 27.2129C115.922 26.9706 115.746 26.8495 115.498 26.8495C115.261 26.8495 115.008 26.9706 114.739 27.2121C114.481 27.4544 114.223 27.7819 113.964 28.1956C113.706 28.6085 113.468 29.0778 113.251 29.6019C113.043 30.1331 112.877 30.6791 112.755 31.2353C112.634 31.7771 112.571 32.3301 112.569 32.8847C112.569 33.2581 112.605 33.5255 112.678 33.6862C112.761 33.8378 112.879 33.9132 113.034 33.9132Z" fill="#2F2352"/>
<path d="M111.66 26.8944L111.707 26.592H109.86L110.59 24.1115C110.285 24.1849 109.974 24.2356 109.661 24.2631C109.341 24.2927 108.994 24.3134 108.622 24.3233L107.956 26.592H106.545L106.468 26.8944H107.867L106.281 32.2952C106.147 32.7385 106.101 33.137 106.142 33.4897C106.194 33.8325 106.338 34.1053 106.576 34.3063C106.824 34.5083 107.181 34.6097 107.646 34.6097C108.173 34.6097 108.627 34.4733 109.01 34.2004C109.392 33.9285 109.692 33.4798 109.909 32.8543L110.219 31.947H109.924L109.692 32.5671C109.505 33.0715 109.299 33.4242 109.071 33.6261C108.854 33.828 108.637 33.9285 108.42 33.9285C108.335 33.9313 108.25 33.9149 108.172 33.8807C108.094 33.8464 108.026 33.7953 107.971 33.7311C107.867 33.6009 107.857 33.3945 107.94 33.1118L109.771 26.8944H111.66ZM106.527 23.582C106.424 23.844 106.284 24.2281 106.108 24.7316C105.943 25.2252 105.778 25.8713 105.613 26.6674H105.303C105.333 26.5265 105.354 26.3802 105.365 26.2294C105.384 26.0941 105.395 25.9577 105.396 25.8211C105.396 25.4271 105.313 25.0852 105.147 24.7926C104.989 24.4858 104.733 24.2365 104.419 24.0809C104.099 23.8997 103.685 23.809 103.18 23.809C102.632 23.809 102.166 23.9499 101.785 24.2326C101.402 24.5045 101.211 24.9434 101.211 25.5483C101.211 25.9216 101.298 26.2752 101.474 26.6072C101.661 26.9303 101.893 27.248 102.172 27.5603C102.462 27.8627 102.766 28.1706 103.086 28.4829C103.407 28.7853 103.707 29.0985 103.985 29.4207C104.264 29.7438 104.492 30.0866 104.667 30.4492C104.853 30.8027 104.946 31.1904 104.946 31.614C104.946 32.1489 104.812 32.6075 104.543 32.9907C104.281 33.3671 103.937 33.6822 103.536 33.9133C103.114 34.1482 102.66 34.3215 102.187 34.4275C101.732 34.5461 101.264 34.6073 100.793 34.6097C100.327 34.6097 99.9401 34.5738 99.6303 34.5038C99.3654 34.4551 99.1094 34.3683 98.8707 34.2462C98.6678 34.1376 98.4661 34.0269 98.2657 33.9142C98.1744 33.8394 98.0692 33.7827 97.9558 33.7472C97.8836 33.7118 97.8047 33.691 97.7241 33.6862C97.5889 33.6862 97.4758 33.7517 97.3829 33.8836C97.261 34.0807 97.1573 34.2879 97.073 34.5029H96.7622C97.0182 33.8878 97.2308 33.2563 97.3985 32.6129C97.5217 32.1489 97.6615 31.5692 97.8169 30.8727H98.1268C98.0835 31.0731 98.0474 31.2748 98.0183 31.4776C97.987 31.6795 97.9769 31.8815 97.987 32.0834C98.0183 32.7888 98.2399 33.3335 98.6537 33.7167C99.0776 34.0999 99.6974 34.2911 100.513 34.2911C101.205 34.2911 101.728 34.1502 102.079 33.8684C102.43 33.5758 102.606 33.1522 102.606 32.5976C102.606 32.174 102.523 31.7899 102.358 31.448C102.201 31.0923 101.993 30.7609 101.738 30.4644C101.475 30.1575 101.201 29.86 100.917 29.5724C100.632 29.2847 100.357 28.9868 100.095 28.6794C99.8409 28.374 99.6275 28.0387 99.4592 27.6815C99.29 27.2995 99.2057 26.8869 99.2119 26.4708C99.2119 25.9674 99.3204 25.5285 99.5374 25.1552C99.756 24.791 100.052 24.4765 100.405 24.2326C100.766 23.9804 101.17 23.791 101.598 23.6726C102.014 23.5443 102.448 23.4781 102.885 23.4761C103.443 23.4761 103.902 23.5416 104.264 23.6735C104.626 23.8036 104.936 23.9607 105.194 24.142L105.489 24.3233C105.582 24.3636 105.654 24.3834 105.706 24.3834C105.85 24.3834 106.021 24.1168 106.217 23.582H106.527Z" fill="#2F2352"/>
<path fill-rule="evenodd" clip-rule="evenodd" d="M91.5661 33.7014C91.5349 33.5507 91.556 33.3541 91.6287 33.1118L94.6659 22.3722C94.1797 22.5668 93.6765 22.7185 93.1625 22.8254C92.6356 22.9268 92.0314 22.9816 91.3491 22.9923L91.2406 23.31C91.7464 23.31 92.0627 23.3908 92.1859 23.5523C92.3101 23.7139 92.3257 23.9651 92.2328 24.308L91.5137 26.9545C91.4686 26.8268 91.3907 26.7125 91.2875 26.6224C91.1119 26.4609 90.8691 26.3801 90.5592 26.3801C89.9386 26.3801 89.3657 26.5166 88.8388 26.7885C88.3088 27.0711 87.8318 27.4395 87.4282 27.878C87.0042 28.3223 86.6444 28.8211 86.3588 29.3605C86.0773 29.8854 85.8538 30.4381 85.6921 31.0091C85.545 31.5009 85.4667 32.0099 85.4595 32.5222C85.4595 33.0059 85.5376 33.4044 85.6921 33.7167C85.8475 34.0191 86.059 34.2462 86.3275 34.3969C86.596 34.5387 86.8958 34.6087 87.2268 34.6087C87.7326 34.6087 88.1878 34.4633 88.5905 34.1708C88.9933 33.8683 89.3703 33.4044 89.7215 32.7789C89.8687 32.524 90.0167 32.2377 90.1648 31.92L90.0636 32.2951C89.9696 32.5905 89.907 32.8946 89.8769 33.2024C89.8523 33.4262 89.8732 33.6525 89.9386 33.8683C90.0627 34.3619 90.4443 34.6096 91.0861 34.6096C91.3234 34.6096 91.5661 34.5639 91.8144 34.4732C92.0627 34.3826 92.2944 34.2264 92.5114 34.0039C92.7395 33.7822 92.9197 33.4654 93.054 33.0508L93.4264 31.9469H93.1321L92.8838 32.6272C92.6981 33.1423 92.5225 33.4896 92.357 33.6709C92.2015 33.8432 92.0415 33.9285 91.876 33.9285C91.7013 33.9285 91.5974 33.8531 91.5661 33.7014ZM90.7386 29.8066C90.6227 30.1754 90.4958 30.5263 90.3569 30.8574C90.0995 31.5036 89.8255 32.0582 89.5358 32.5222C89.2572 32.9754 88.9832 33.3281 88.7146 33.5812C88.4461 33.8226 88.2089 33.9437 88.0011 33.9437C87.8052 33.9437 87.6609 33.8531 87.568 33.6718C87.4852 33.4798 87.4438 33.1926 87.4438 32.8094C87.4438 32.2646 87.5055 31.71 87.6296 31.1455C87.7537 30.5712 87.9238 30.021 88.1409 29.4969C88.3408 29.005 88.5903 28.5336 88.8857 28.0898C89.1643 27.6662 89.4586 27.3332 89.7684 27.0909C90.0884 26.8486 90.4038 26.7283 90.7137 26.7283C90.9206 26.7283 91.0861 26.7992 91.2103 26.9401C91.2967 27.0317 91.3629 27.1645 91.4089 27.3404L90.7386 29.8066Z" fill="#2F2352"/>
<path d="M78.8305 34.3969H76.9243L78.8002 27.8779C78.8416 27.737 78.8719 27.606 78.8921 27.4849C78.9152 27.3835 78.9046 27.2775 78.8618 27.1824C78.8305 27.1017 78.7422 27.0613 78.5979 27.0613C78.402 27.0613 78.2209 27.1573 78.0554 27.3485C77.9009 27.5297 77.7298 27.8681 77.5441 28.3626L77.2811 29.0724H76.9868L77.3896 27.9381C77.6066 27.3431 77.8862 26.9347 78.2264 26.7131C78.5666 26.4914 78.9436 26.381 79.3574 26.381C79.6986 26.381 79.957 26.4456 80.1326 26.5767C80.3127 26.699 80.4398 26.8823 80.4894 27.0909C80.5409 27.2928 80.551 27.5199 80.5206 27.772C80.489 28.0166 80.4424 28.259 80.3809 28.4981L79.8641 30.4653C80.0829 29.9367 80.2963 29.4736 80.505 29.0724C80.8563 28.3976 81.1965 27.8627 81.5275 27.4696C81.8586 27.0658 82.1988 26.784 82.5501 26.6224C82.9023 26.4609 83.2682 26.3801 83.6508 26.3801C84.1565 26.3801 84.5087 26.4914 84.7045 26.7131C84.9114 26.9249 85.0098 27.2067 84.9988 27.5603C84.9988 27.9031 84.9326 28.271 84.7974 28.6641L83.2793 33.1118C83.1855 33.3837 83.1597 33.591 83.2011 33.731C83.2425 33.8629 83.3464 33.9285 83.5119 33.9285C83.6664 33.9285 83.8264 33.8432 83.9919 33.6718C84.1675 33.4995 84.3533 33.1513 84.5501 32.6272L84.7983 31.9469H85.0926L84.7045 33.0508C84.5602 33.4744 84.3735 33.7974 84.1473 34.02C83.9526 34.2275 83.707 34.3835 83.4337 34.4732C83.1963 34.5622 82.9442 34.6084 82.6898 34.6096C82.4213 34.6096 82.1887 34.5638 81.9928 34.4732C81.8062 34.3924 81.6618 34.2758 81.5588 34.125C81.4245 33.9338 81.3675 33.6862 81.3878 33.3837C81.4089 33.0813 81.4917 32.7187 81.636 32.2951L83.0466 28.1355C83.0981 27.974 83.1395 27.8124 83.1708 27.6509C83.2033 27.5108 83.1979 27.3648 83.1551 27.2273C83.1137 27.1062 83.0052 27.046 82.8296 27.046C82.6126 27.046 82.3744 27.1672 82.117 27.4086C81.8586 27.641 81.5891 27.9686 81.3105 28.3922C81.0012 28.8695 80.7218 29.3646 80.4737 29.8747C80.1951 30.4401 79.9257 31.054 79.6673 31.7199C79.419 32.375 79.1983 33.0562 79.0016 33.7624L79.0108 33.7131L78.8305 34.3969Z" fill="#2F2352"/>
<path fill-rule="evenodd" clip-rule="evenodd" d="M73.0389 32.06L72.9745 32.2951C72.8769 32.6368 72.8092 32.986 72.7722 33.3388C72.7409 33.6619 72.7924 33.9338 72.9267 34.1555C73.1336 34.4579 73.4849 34.6096 73.9814 34.6096C74.2464 34.6078 74.5082 34.5531 74.7508 34.4489C74.9934 34.3447 75.2116 34.1933 75.392 34.0038C75.609 33.7723 75.7892 33.4492 75.9345 33.0364L76.3207 31.9326H76.0265L75.7947 32.6128C75.6081 33.1369 75.4269 33.4851 75.2522 33.6565C75.0766 33.827 74.9055 33.9132 74.7409 33.9132C74.6058 33.9132 74.5184 33.8728 74.477 33.792C74.4447 33.6893 74.4341 33.5812 74.4458 33.4743C74.4669 33.3433 74.4973 33.2177 74.5396 33.0965L76.5387 26.3801C76.2277 26.4527 75.9118 26.5034 75.5934 26.5318C75.2724 26.5623 74.9267 26.582 74.5543 26.5919L74.3299 27.4014C74.3203 27.1959 74.2591 26.9959 74.1515 26.819C74.0708 26.6812 73.9532 26.5676 73.8113 26.4903C73.6693 26.4129 73.5085 26.3749 73.346 26.3801C72.8908 26.3801 72.4357 26.5165 71.9814 26.7885C71.5272 27.0613 71.0986 27.4238 70.695 27.8779C70.2775 28.3416 69.9136 28.8487 69.6099 29.3901C69.3051 29.9329 69.0609 30.506 68.8816 31.0997C68.7126 31.6339 68.624 32.1893 68.6187 32.7483C68.6187 33.3137 68.7529 33.7669 69.0214 34.1097C69.2899 34.4427 69.7037 34.6087 70.2609 34.6087C70.6536 34.6087 71.0315 34.4983 71.392 34.2767C71.7644 34.0541 72.1166 33.6861 72.4467 33.1728C72.6518 32.8632 72.8485 32.4926 73.0389 32.06ZM71.7028 33.5955C71.4655 33.8073 71.2531 33.9132 71.0674 33.9132C70.912 33.9132 70.7934 33.8378 70.7106 33.6861C70.6389 33.5246 70.6021 33.2581 70.6021 32.8847C70.6021 32.3499 70.6646 31.8006 70.7888 31.2361C70.912 30.6708 71.0775 30.1269 71.2844 29.6028C71.5014 29.0778 71.7386 28.6093 71.997 28.1956C72.2554 27.7828 72.5138 27.4543 72.7722 27.212C73.0407 26.9697 73.2936 26.8495 73.5318 26.8495C73.78 26.8495 73.9547 26.9706 74.0587 27.212C74.1616 27.431 74.1874 27.7245 74.1387 28.0915L73.6807 29.7446L73.7331 29.4817C73.5676 30.1269 73.3718 30.7219 73.1446 31.2667C72.9166 31.8105 72.6793 32.2799 72.4311 32.6729C72.1828 33.066 71.94 33.3738 71.7028 33.5955Z" fill="#2F2352"/>
<path d="M64.4736 34.3969H62.5674L64.4267 27.878C64.5196 27.5755 64.5508 27.3637 64.5196 27.2426C64.4892 27.1214 64.3963 27.0613 64.2409 27.0613C64.0451 27.0613 63.8639 27.1573 63.6984 27.3485C63.5329 27.5396 63.3628 27.878 63.1872 28.3626L62.9232 29.0725H62.629L63.0317 27.9381C63.177 27.5343 63.3573 27.2228 63.5743 27.0003C63.7913 26.7687 64.0295 26.6072 64.2878 26.5166C64.5453 26.4259 64.8092 26.3802 65.0786 26.3802C65.4088 26.3802 65.6515 26.4457 65.806 26.5776C65.9704 26.7063 66.0809 26.8892 66.1168 27.0918C66.1683 27.3036 66.1784 27.5351 66.1472 27.7873C66.1269 28.0296 66.0855 28.2666 66.023 28.4981L65.7747 29.4467L65.7996 29.3812L65.8373 29.2852C66.1269 28.569 66.4055 27.9991 66.6741 27.5755C66.9536 27.1421 67.2478 26.8343 67.5577 26.653C67.8614 26.4729 68.2102 26.3784 68.5655 26.3802C68.937 26.3802 69.2212 26.486 69.418 26.6978C69.6239 26.9096 69.7278 27.1717 69.7278 27.4849C69.7278 27.7362 69.6653 27.974 69.5412 28.1957C69.4209 28.4036 69.2509 28.58 69.0455 28.7099C68.8407 28.8331 68.6038 28.8961 68.3632 28.8912C68.1058 28.8912 67.8989 28.8257 67.7435 28.6946C67.5991 28.5636 67.5265 28.3716 67.5265 28.1203C67.5265 27.8977 67.578 27.6967 67.6819 27.5145C67.7849 27.3332 67.9191 27.1825 68.0846 27.0613C68.2501 26.9303 68.4304 26.8396 68.6272 26.7885C68.6054 26.7678 68.5789 26.7525 68.5499 26.7436C68.5293 26.7368 68.5081 26.7323 68.4865 26.7301C68.4712 26.7287 68.4558 26.7281 68.4405 26.7284C68.2143 26.7284 67.9807 26.8091 67.7435 26.9707C67.5062 27.1214 67.258 27.3691 66.9996 27.7119C66.7421 28.0548 66.4782 28.508 66.2088 29.0725C65.9058 29.7399 65.637 30.4216 65.4032 31.115C65.2865 31.4498 65.1688 31.8114 65.0511 32.1982L64.4736 34.3969Z" fill="#2F2352"/>
<path fill-rule="evenodd" clip-rule="evenodd" d="M61.5742 24.2479C61.0574 23.8844 60.2307 23.7031 59.0942 23.7031C58.7429 23.7031 58.3916 23.7085 58.0395 23.7184C57.6992 23.7283 57.3066 23.7336 56.8624 23.7336H56.0873C55.8077 23.7229 55.5447 23.7184 55.2965 23.7184C55.0898 23.7095 54.8832 23.6993 54.6767 23.6879L54.5995 23.9903C55.0022 23.9903 55.2762 24.0406 55.4206 24.142C55.576 24.2317 55.6477 24.3735 55.6376 24.5656C55.6168 24.8105 55.5752 25.0533 55.5135 25.2916L53.4675 32.7941C53.3755 33.1567 53.2716 33.4295 53.1576 33.6108C53.0546 33.7842 52.889 33.9138 52.6933 33.9743C52.4965 34.0344 52.2224 34.0748 51.8712 34.0945L51.8096 34.397C51.9843 34.388 52.1967 34.3826 52.4441 34.3826C52.6923 34.3718 52.9562 34.3674 53.2349 34.3674C54.0149 34.3442 54.7955 34.3493 55.5751 34.3826C55.999 34.3916 56.387 34.3979 56.7383 34.3979C57.4096 34.3979 58.045 34.3315 58.6445 34.2004C59.1971 34.0781 59.7257 33.869 60.2096 33.5812C60.6425 33.3295 61.0088 32.9822 61.279 32.5671C61.5475 32.1633 61.6818 31.6903 61.6818 31.1456C61.6818 30.5299 61.4243 30.0004 60.9075 29.5571C60.4018 29.1129 59.5999 28.8508 58.5047 28.77C59.188 28.6743 59.8519 28.4754 60.4726 28.1804C61.0519 27.8879 61.5061 27.5298 61.8372 27.1062C62.1704 26.704 62.351 26.2019 62.3484 25.6847C62.3484 25.0798 62.0919 24.6006 61.5742 24.2479ZM56.627 28.9675L55.5907 32.7941C55.5291 33.0454 55.4877 33.268 55.4675 33.4591C55.4565 33.6512 55.508 33.7975 55.622 33.8989C55.736 33.9994 55.9475 34.0497 56.2574 34.0497C56.9912 34.0497 57.5907 33.9133 58.0551 33.6413C58.5101 33.3802 58.8726 32.9898 59.0942 32.5222C59.3213 32.0376 59.4344 31.4929 59.4344 30.8889C59.4344 30.5147 59.3673 30.1871 59.233 29.9053C59.1148 29.619 58.9022 29.3793 58.6289 29.2241C58.3503 29.0527 57.9778 28.9675 57.5126 28.9675H56.627ZM56.6969 28.7099H57.405C57.9935 28.7099 58.4946 28.5636 58.9075 28.2711C59.3314 27.9686 59.6523 27.5756 59.8693 27.0918C60.0953 26.6126 60.2114 26.091 60.2096 25.5635C60.2096 25.0591 60.1066 24.6715 59.8997 24.3986C59.7038 24.1267 59.3572 23.9903 58.8606 23.9903C58.5001 23.9903 58.2418 24.0612 58.0864 24.2021C57.9319 24.3331 57.7976 24.6203 57.6836 25.0636L56.6969 28.7099Z" fill="#2F2352"/>
</g>
<defs>
<clipPath id="clip0_123_375">
<rect width="160" height="35" fill="white"/>
</clipPath>
</defs>
</svg>
