<svg width="159" height="32" viewBox="0 0 159 32" fill="none" xmlns="http://www.w3.org/2000/svg">
<g clip-path="url(#clip0_123_340)">
<path fill-rule="evenodd" clip-rule="evenodd" d="M20.1156 9.34824C18.8212 8.4692 17.2994 8 15.7426 8V0C18.8561 0 21.8998 0.938384 24.4887 2.69649C27.0775 4.45458 29.0953 6.95345 30.2868 9.87704C31.4783 12.8006 31.7901 16.0178 31.1827 19.1214C30.5752 22.2251 29.0759 25.0761 26.8742 27.3137C24.6726 29.5514 21.8675 31.0752 18.8138 31.6926C15.76 32.3099 12.5947 31.993 9.71813 30.7821C6.84157 29.571 4.38291 27.5203 2.6531 24.8891C0.923286 22.2579 0 19.1645 0 16H7.87129C7.87129 17.5822 8.33294 19.129 9.19783 20.4446C10.0627 21.7602 11.2921 22.7855 12.7304 23.391C14.1686 23.9966 15.7513 24.155 17.2782 23.8462C18.8051 23.5376 20.2076 22.7757 21.3084 21.6569C22.4092 20.538 23.1589 19.1126 23.4626 17.5607C23.7663 16.0089 23.6105 14.4003 23.0147 12.9386C22.4189 11.4767 21.4101 10.2273 20.1156 9.34824Z" fill="#007DFC"/>
<path fill-rule="evenodd" clip-rule="evenodd" d="M7.87128 4.22794e-06C7.87128 1.05058 7.66769 2.09087 7.27212 3.06148C6.87655 4.03207 6.29676 4.91399 5.56584 5.65686C4.83493 6.39973 3.9672 6.989 3.01221 7.39104C2.05722 7.79308 1.03367 8 3.44062e-07 8L0 16C2.06734 16 4.11444 15.5862 6.02443 14.7821C7.93441 13.978 9.66987 12.7994 11.1316 11.3137C12.5935 9.828 13.7531 8.06416 14.5442 6.12294C15.3354 4.18172 15.7426 2.10115 15.7426 0L7.87128 4.22794e-06Z" fill="#007DFC"/>
<path d="M98.8782 11.562H95.0591V23.8919H98.8782V11.562Z" fill="#007DFC"/>
<path d="M95.4843 9.25326C95.8833 9.65918 96.3824 9.86214 96.9814 9.86214C97.5804 9.86214 98.0716 9.65918 98.4541 9.25326C98.8374 8.83046 99.0287 8.32302 99.0287 7.73106C99.0287 7.12219 98.8374 6.61477 98.4541 6.20886C98.0716 5.80293 97.5804 5.59998 96.9814 5.59998C96.3824 5.59998 95.8833 5.80293 95.4843 6.20886C95.1009 6.61477 94.9097 7.12219 94.9097 7.73106C94.9097 8.32302 95.1009 8.83046 95.4843 9.25326Z" fill="#007DFC"/>
<path d="M40.2666 23.8919V5.98059H44.1856V20.3908H51.9988V23.8919H40.2666Z" fill="#007DFC"/>
<path fill-rule="evenodd" clip-rule="evenodd" d="M59.0563 24.1708C57.8083 24.1708 56.6767 23.8918 55.6615 23.3336C54.663 22.7586 53.8726 21.9806 53.2901 20.9996C52.7077 20.0186 52.4165 18.9192 52.4165 17.7015C52.4165 16.4837 52.7077 15.3928 53.2901 14.4288C53.8726 13.4647 54.663 12.7036 55.6615 12.1455C56.66 11.5704 57.7916 11.2828 59.0563 11.2828C60.3211 11.2828 61.4527 11.562 62.4511 12.12C63.4496 12.6782 64.2401 13.4478 64.8225 14.4288C65.405 15.3928 65.6962 16.4837 65.6962 17.7015C65.6962 18.9192 65.405 20.0186 64.8225 20.9996C64.2401 21.9806 63.4496 22.7586 62.4511 23.3336C61.4527 23.8918 60.3211 24.1708 59.0563 24.1708ZM59.0563 20.6444C59.6055 20.6444 60.0881 20.526 60.5042 20.2892C60.9202 20.0356 61.2364 19.6888 61.4527 19.2491C61.6856 18.7924 61.8021 18.2765 61.8021 17.7015C61.8021 17.1264 61.6856 16.6275 61.4527 16.2047C61.2197 15.7649 60.8952 15.4267 60.4791 15.1899C60.0797 14.9361 59.6055 14.8093 59.0563 14.8093C58.5238 14.8093 58.0496 14.9361 57.6335 15.1899C57.2175 15.4267 56.893 15.7649 56.66 16.2047C56.427 16.6444 56.3106 17.1518 56.3106 17.7268C56.3106 18.285 56.427 18.7924 56.66 19.2491C56.893 19.6888 57.2175 20.0356 57.6335 20.2892C58.0496 20.526 58.5238 20.6444 59.0563 20.6444Z" fill="#007DFC"/>
<path fill-rule="evenodd" clip-rule="evenodd" d="M68.7206 28.7121C69.7357 29.1857 70.9089 29.4225 72.2402 29.4225C73.5382 29.4225 74.6948 29.1603 75.7099 28.636C76.7251 28.1117 77.5238 27.3845 78.1062 26.4542C78.6886 25.524 78.9803 24.4246 78.9803 23.1561V11.562H75.2356V12.3904C74.9571 12.1521 74.6408 11.9521 74.2871 11.7903C73.638 11.4689 72.8975 11.3082 72.0655 11.3082C70.9505 11.3082 69.9603 11.5789 69.095 12.1201C68.2296 12.6444 67.5474 13.3717 67.0481 14.3019C66.5488 15.2153 66.2993 16.2469 66.2993 17.3971C66.2993 18.5303 66.5488 19.562 67.0481 20.4922C67.5474 21.4225 68.2296 22.1582 69.095 22.6994C69.9603 23.2406 70.9505 23.5113 72.0655 23.5113C72.8809 23.5113 73.6214 23.3506 74.2871 23.0293C74.6095 22.8736 74.9007 22.6901 75.1607 22.4789V23.2576C75.1607 24.1201 74.8862 24.7882 74.337 25.2618C73.8045 25.7354 73.064 25.9721 72.1154 25.9721C71.3499 25.9721 70.6926 25.8369 70.1434 25.5662C69.6109 25.2957 69.1283 24.8981 68.6956 24.3738L66.3492 26.7586C66.9316 27.6043 67.7221 28.2555 68.7206 28.7121ZM74.1623 19.7057C73.7795 19.9425 73.3219 20.0609 72.7894 20.0609C72.2569 20.0609 71.7909 19.9425 71.3915 19.7057C71.0087 19.4689 70.7092 19.1476 70.4929 18.7417C70.2765 18.3189 70.1684 17.8706 70.1684 17.3971C70.1684 16.8897 70.2765 16.433 70.4929 16.0271C70.7092 15.6212 71.0171 15.2998 71.4164 15.063C71.8158 14.8262 72.2735 14.7078 72.7894 14.7078C73.3219 14.7078 73.7795 14.8262 74.1623 15.063C74.5617 15.2998 74.8612 15.6212 75.0609 16.0271C75.2772 16.433 75.3854 16.8897 75.3854 17.3971C75.3854 17.9045 75.2772 18.3611 75.0609 18.767C74.8612 19.1561 74.5617 19.4689 74.1623 19.7057Z" fill="#007DFC"/>
<path fill-rule="evenodd" clip-rule="evenodd" d="M87.0177 24.1708C85.7693 24.1708 84.6374 23.8918 83.6228 23.3336C82.6239 22.7586 81.8336 21.9806 81.2512 20.9996C80.6687 20.0186 80.3774 18.9192 80.3774 17.7015C80.3774 16.4837 80.6687 15.3928 81.2512 14.4288C81.8336 13.4647 82.6239 12.7036 83.6228 12.1455C84.6209 11.5704 85.7527 11.2828 87.0177 11.2828C88.2818 11.2828 89.4137 11.562 90.4118 12.12C91.4106 12.6782 92.2009 13.4478 92.7834 14.4288C93.3659 15.3928 93.6571 16.4837 93.6571 17.7015C93.6571 18.9192 93.3659 20.0186 92.7834 20.9996C92.2009 21.9806 91.4106 22.7586 90.4118 23.3336C89.4137 23.8918 88.2818 24.1708 87.0177 24.1708ZM87.0177 20.6444C87.5663 20.6444 88.0488 20.526 88.4652 20.2892C88.8808 20.0356 89.1972 19.6888 89.4137 19.2491C89.6467 18.7924 89.7632 18.2765 89.7632 17.7015C89.7632 17.1264 89.6467 16.6275 89.4137 16.2047C89.1807 15.7649 88.8564 15.4267 88.44 15.1899C88.0409 14.9361 87.5663 14.8093 87.0177 14.8093C86.4848 14.8093 86.0101 14.9361 85.5945 15.1899C85.1781 15.4267 84.8538 15.7649 84.6209 16.2047C84.3879 16.6444 84.2714 17.1518 84.2714 17.7268C84.2714 18.285 84.3879 18.7924 84.6209 19.2491C84.8538 19.6888 85.1781 20.0356 85.5945 20.2892C86.0101 20.526 86.4848 20.6444 87.0177 20.6444Z" fill="#007DFC"/>
<path fill-rule="evenodd" clip-rule="evenodd" d="M108.058 24.1455C107.243 24.1455 106.494 23.9849 105.811 23.6635C105.452 23.4944 105.128 23.2925 104.838 23.0577V29.0927H101.069V11.562H104.888V12.4129C105.165 12.1826 105.473 11.9835 105.811 11.8157C106.494 11.4773 107.243 11.3082 108.058 11.3082C109.206 11.3082 110.222 11.5873 111.103 12.1455C112.002 12.7036 112.701 13.4647 113.2 14.4288C113.716 15.3929 113.974 16.4922 113.974 17.7269C113.974 18.9616 113.716 20.0609 113.2 21.025C112.701 21.9891 112.002 22.7501 111.103 23.3083C110.222 23.8665 109.206 24.1455 108.058 24.1455ZM107.36 20.6445C107.908 20.6445 108.383 20.5176 108.782 20.2639C109.198 20.0102 109.523 19.6634 109.756 19.2237C109.989 18.784 110.105 18.285 110.105 17.7269C110.105 17.1518 109.989 16.6445 109.756 16.2047C109.523 15.7649 109.198 15.4267 108.782 15.1899C108.383 14.9361 107.917 14.8093 107.384 14.8093C106.852 14.8093 106.377 14.9361 105.962 15.1899C105.562 15.4267 105.246 15.7649 105.013 16.2047C104.78 16.6445 104.664 17.1518 104.664 17.7269C104.664 18.285 104.772 18.784 104.988 19.2237C105.221 19.6634 105.545 20.0102 105.962 20.2639C106.377 20.5176 106.843 20.6445 107.36 20.6445Z" fill="#007DFC"/>
<path d="M117.712 23.9172C118.411 24.1033 119.118 24.1962 119.833 24.1962C121.348 24.1962 122.546 23.8411 123.428 23.1307C124.326 22.4204 124.776 21.4648 124.776 20.2639C124.776 19.4859 124.635 18.8601 124.351 18.3865C124.069 17.8961 123.703 17.507 123.253 17.2195C122.804 16.932 122.329 16.7036 121.83 16.5345C121.331 16.3653 120.857 16.2216 120.408 16.1032C119.959 15.9848 119.593 15.8495 119.309 15.6973C119.027 15.545 118.885 15.3421 118.885 15.0884C118.885 14.8516 118.994 14.674 119.209 14.5556C119.426 14.4203 119.75 14.3527 120.183 14.3527C120.632 14.3527 121.09 14.4457 121.556 14.6317C122.038 14.8177 122.471 15.1392 122.854 15.5958L125.025 13.3633C124.477 12.6529 123.761 12.1201 122.879 11.7649C122.014 11.3929 121.065 11.2068 120.033 11.2068C119.052 11.2068 118.195 11.3759 117.463 11.7141C116.73 12.0525 116.164 12.5176 115.765 13.1095C115.366 13.6845 115.166 14.3696 115.166 15.1645C115.166 15.9087 115.307 16.5261 115.59 17.0165C115.873 17.4901 116.239 17.8622 116.688 18.1328C117.137 18.4034 117.612 18.6149 118.111 18.767C118.61 18.9193 119.085 19.063 119.534 19.1984C119.983 19.3168 120.35 19.4605 120.632 19.6297C120.932 19.7819 121.082 20.0102 121.082 20.3146C121.082 20.5514 120.957 20.7374 120.707 20.8728C120.474 21.0081 120.133 21.0757 119.684 21.0757C119.034 21.0757 118.435 20.9573 117.887 20.7205C117.337 20.4669 116.863 20.1201 116.464 19.6804L114.292 21.9129C114.708 22.3696 115.207 22.7756 115.79 23.1307C116.389 23.4689 117.03 23.7311 117.712 23.9172Z" fill="#007DFC"/>
<path d="M131.74 24.1709C130.626 24.1709 129.635 23.9426 128.77 23.4859C127.921 23.0123 127.256 22.3696 126.773 21.5578C126.29 20.7291 126.049 19.7819 126.049 18.7163V11.562H129.868V18.6656C129.868 19.0884 129.935 19.4521 130.068 19.7565C130.218 20.061 130.434 20.2978 130.717 20.4669C131 20.636 131.341 20.7206 131.74 20.7206C132.306 20.7206 132.756 20.543 133.089 20.1878C133.422 19.8157 133.588 19.3083 133.588 18.6656V11.562H137.407V18.691C137.407 19.7735 137.166 20.7291 136.683 21.5578C136.2 22.3696 135.535 23.0123 134.686 23.4859C133.837 23.9426 132.856 24.1709 131.74 24.1709Z" fill="#007DFC"/>
<path d="M143.124 11.562H139.305V23.8918H143.124V16.6867C143.124 16.2639 143.208 15.9087 143.374 15.6212C143.557 15.3337 143.799 15.1137 144.098 14.9616C144.398 14.7924 144.739 14.7078 145.121 14.7078C145.671 14.7078 146.128 14.8854 146.494 15.2406C146.877 15.5789 147.069 16.0609 147.069 16.6867V23.8918H150.888V16.6867C150.888 16.2639 150.971 15.9087 151.137 15.6212C151.321 15.3337 151.562 15.1137 151.861 14.9616C152.161 14.7924 152.502 14.7078 152.885 14.7078C153.434 14.7078 153.891 14.8854 154.257 15.2406C154.64 15.5789 154.831 16.0609 154.831 16.6867V23.8918H158.651V16.2554C158.651 15.2237 158.435 14.3442 158.002 13.6169C157.585 12.8727 157.012 12.3061 156.28 11.9172C155.564 11.5112 154.74 11.3082 153.808 11.3082C152.86 11.3082 152.002 11.5197 151.237 11.9425C150.74 12.2119 150.305 12.5596 149.933 12.9855C149.586 12.54 149.164 12.1754 148.666 11.8917C148.001 11.5028 147.243 11.3082 146.395 11.3082C145.496 11.3082 144.689 11.5028 143.974 11.8917C143.662 12.0536 143.379 12.2474 143.124 12.4733V11.562Z" fill="#007DFC"/>
</g>
<defs>
<clipPath id="clip0_123_340">
<rect width="159" height="32" fill="white"/>
</clipPath>
</defs>
</svg>
