<svg width="125" height="40" viewBox="0 0 125 40" fill="none" xmlns="http://www.w3.org/2000/svg">
<g clip-path="url(#clip0_123_334)">
<path d="M88.8611 37.225C89.6201 37.225 90.0691 36.65 90.0691 35.751C90.0691 34.819 89.5871 34.277 88.8771 34.277C88.4711 34.277 88.1891 34.457 87.9781 34.743H87.9681V33.27H87.5281V37.143H87.9681V36.775H87.9781C88.2061 37.089 88.4821 37.225 88.8611 37.225ZM88.8291 36.856C88.2331 36.856 87.9401 36.385 87.9401 35.756C87.9401 35.15 88.2221 34.651 88.8341 34.651C89.3651 34.651 89.6201 35.128 89.6201 35.756C89.6201 36.39 89.3651 36.856 88.8291 36.856ZM90.8121 38.07C91.1531 38.07 91.3701 37.95 91.5971 37.37L92.7951 34.342H92.3291L91.6891 36.087C91.6031 36.32 91.5051 36.634 91.5051 36.634H91.4951C91.4951 36.634 91.3911 36.32 91.3051 36.087L90.6441 34.342H90.1671L91.2611 37.062L91.1531 37.338C91.0451 37.609 90.9201 37.68 90.7361 37.68C90.6333 37.6852 90.5308 37.6646 90.4381 37.62H90.4161V38.01C90.5361 38.059 90.6441 38.07 90.8121 38.07ZM93.9181 37.143H94.6551V33.27H93.9181V37.143ZM96.4571 37.225C97.3181 37.225 97.9091 36.585 97.9091 35.756C97.9091 34.927 97.3191 34.288 96.4571 34.288C95.5961 34.288 95.0051 34.928 95.0051 35.756C95.0051 36.586 95.5951 37.225 96.4571 37.225ZM96.4571 36.661C96.0021 36.661 95.7531 36.298 95.7531 35.756C95.7531 35.215 96.0021 34.846 96.4571 34.846C96.9071 34.846 97.1611 35.215 97.1611 35.756C97.1611 36.298 96.9071 36.661 96.4571 36.661ZM99.4761 38.091C99.8881 38.091 100.245 37.994 100.478 37.777C100.684 37.587 100.809 37.322 100.809 36.932V34.364H100.099V34.657H100.088C99.9201 34.424 99.6661 34.288 99.3181 34.288C98.6151 34.288 98.1161 34.819 98.1161 35.648C98.1161 36.488 98.7231 36.975 99.3411 36.975C99.6931 36.975 99.9041 36.835 100.066 36.65H100.083V36.954C100.083 37.333 99.8831 37.534 99.4651 37.534C99.1241 37.534 98.9671 37.398 98.9071 37.224H98.1761C98.2511 37.766 98.7171 38.091 99.4761 38.091ZM99.4661 36.385C99.0861 36.385 98.8361 36.109 98.8361 35.637C98.8361 35.171 99.0861 34.879 99.4601 34.879C99.9041 34.879 100.121 35.225 100.121 35.632C100.121 36.044 99.9311 36.385 99.4651 36.385H99.4661ZM102.6 37.225C103.461 37.225 104.052 36.585 104.052 35.756C104.052 34.927 103.461 34.288 102.6 34.288C101.738 34.288 101.148 34.928 101.148 35.756C101.148 36.586 101.738 37.225 102.6 37.225ZM102.6 36.661C102.145 36.661 101.895 36.298 101.895 35.756C101.895 35.215 102.145 34.846 102.6 34.846C103.049 34.846 103.304 35.215 103.304 35.756C103.304 36.298 103.049 36.661 102.6 36.661ZM104.394 37.143H105.131V34.364H104.394V37.143ZM104.394 33.931H105.131V33.27H104.394V33.931ZM105.606 38.053H106.343V36.83H106.353C106.511 37.069 106.765 37.226 107.155 37.226C107.87 37.226 108.358 36.656 108.358 35.757C108.358 34.89 107.887 34.289 107.15 34.289C106.989 34.2864 106.831 34.3237 106.688 34.3975C106.545 34.4713 106.423 34.5794 106.332 34.712H106.316V34.365H105.606V38.055V38.053ZM106.998 36.613C106.559 36.613 106.326 36.282 106.326 35.778C106.326 35.28 106.511 34.884 106.971 34.884C107.426 34.884 107.61 35.252 107.61 35.778C107.61 36.304 107.372 36.613 106.998 36.613ZM109.828 37.225C110.521 37.225 110.998 36.889 110.998 36.331C110.998 35.681 110.483 35.551 110.017 35.453C109.622 35.372 109.254 35.35 109.254 35.112C109.254 34.912 109.443 34.802 109.73 34.802C110.045 34.802 110.234 34.912 110.267 35.209H110.933C110.879 34.651 110.473 34.289 109.741 34.289C109.107 34.289 108.609 34.575 108.609 35.177C108.609 35.783 109.096 35.919 109.595 36.017C109.974 36.092 110.326 36.119 110.326 36.385C110.326 36.58 110.142 36.705 109.817 36.705C109.487 36.705 109.259 36.564 109.21 36.244H108.528C108.571 36.834 109.021 37.225 109.828 37.225ZM113.796 37.143V34.364H113.059V35.968C113.059 36.336 112.847 36.596 112.501 36.596C112.187 36.596 112.04 36.417 112.04 36.092V34.364H111.309V36.217C111.309 36.824 111.656 37.219 112.273 37.219C112.663 37.219 112.88 37.073 113.07 36.819H113.086V37.143H113.796ZM114.272 37.143H115.009V35.53C115.009 35.161 115.209 34.923 115.507 34.923C115.778 34.923 115.935 35.086 115.935 35.4V37.144H116.672V35.53C116.672 35.161 116.862 34.923 117.171 34.923C117.442 34.923 117.599 35.086 117.599 35.4V37.144H118.336V35.275C118.336 34.668 118.005 34.289 117.42 34.289C117.068 34.289 116.775 34.473 116.586 34.777H116.575C116.508 34.6294 116.4 34.5046 116.263 34.4178C116.126 34.3311 115.967 34.2863 115.805 34.289C115.643 34.2849 115.482 34.3245 115.34 34.4037C115.198 34.4828 115.08 34.5987 114.998 34.739H114.982V34.365H114.272V37.145V37.143Z" fill="#E5708C"/>
<path d="M118.481 2.14906C118.481 0.966061 119.44 0.00606055 120.623 0.00606055H122.052C122.62 0.00606055 123.166 0.23184 123.567 0.633731C123.969 1.03562 124.195 1.5807 124.195 2.14906C124.195 2.71742 123.969 3.2625 123.567 3.66439C123.166 4.06628 122.62 4.29206 122.052 4.29206H120.623C120.342 4.29206 120.063 4.23662 119.803 4.12891C119.543 4.02121 119.307 3.86334 119.108 3.66433C118.909 3.46532 118.751 3.22907 118.644 2.96908C118.536 2.70908 118.481 2.43044 118.481 2.14906ZM58.4901 14.2901C58.4901 22.1781 52.0961 28.5731 44.2071 28.5731C36.3191 28.5731 29.9241 22.1781 29.9241 14.2901C29.9241 6.40006 36.3191 0.00706055 44.2071 0.00706055C52.0961 0.00706055 58.4901 6.40006 58.4901 14.2901ZM27.1381 14.2191C27.9281 14.2191 28.5741 14.8591 28.4951 15.6451C28.2251 18.3349 27.1973 20.8929 25.5312 23.0217C23.865 25.1505 21.6289 26.7628 19.0828 27.6712C16.5366 28.5796 13.785 28.7467 11.1476 28.1532C8.51022 27.5596 6.09543 26.2298 4.18388 24.3183C2.27234 22.4067 0.942523 19.9919 0.348993 17.3546C-0.244537 14.7172 -0.0774105 11.9655 0.830949 9.41936C1.73931 6.87321 3.3516 4.63712 5.48045 2.97097C7.60929 1.30482 10.1673 0.277035 12.8571 0.00706055C13.6421 -0.0729394 14.2831 0.575061 14.2831 1.36306V12.7901C14.2831 13.5801 14.9231 14.2191 15.7121 14.2191H27.1381ZM78.4871 31.4301C79.6235 31.4301 80.7134 31.8815 81.517 32.6851C82.3206 33.4887 82.7721 34.5786 82.7721 35.7151C82.7721 36.8515 82.3206 37.9414 81.517 38.745C80.7134 39.5486 79.6235 40.0001 78.4871 40.0001H71.3461C70.2096 40.0001 69.1197 39.5486 68.3161 38.745C67.5125 37.9414 67.0611 36.8515 67.0611 35.7151C67.0611 34.5786 67.5125 33.4887 68.3161 32.6851C69.1197 31.8815 70.2096 31.4301 71.3461 31.4301H78.4871ZM74.2021 28.5731C82.0911 28.5731 88.4861 22.1781 88.4861 14.2901C88.4895 11.867 87.8737 9.48327 86.6971 7.36506L89.0571 5.00506C89.3289 4.73309 89.5445 4.41025 89.6916 4.05495C89.8387 3.69966 89.9143 3.31888 89.9142 2.93435C89.9141 2.54983 89.8383 2.16908 89.6911 1.81386C89.5438 1.45864 89.328 1.1359 89.0561 0.864061C88.7841 0.592224 88.4613 0.376618 88.106 0.229551C87.7507 0.0824848 87.3699 0.00683844 86.9854 0.00693131C86.6008 0.00702417 86.2201 0.0828544 85.8649 0.230092C85.5097 0.377331 85.1869 0.593093 84.9151 0.865061L82.8551 2.92506C80.3699 1.02697 77.3282 0.00102872 74.2011 0.00606055C66.3141 0.00706055 59.9201 6.40006 59.9201 14.2901C59.9201 22.1781 66.3141 28.5731 74.2021 28.5731ZM118.481 14.2901C118.481 22.1781 112.086 28.5731 104.197 28.5731C96.3091 28.5731 89.9141 22.1781 89.9141 14.2901C89.9141 6.40006 96.3091 0.00706055 104.197 0.00706055C112.086 0.00706055 118.481 6.40106 118.481 14.2901Z" fill="url(#paint0_linear_123_334)"/>
</g>
<defs>
<linearGradient id="paint0_linear_123_334" x1="8.66483e-05" y1="16.0001" x2="119" y2="16.0001" gradientUnits="userSpaceOnUse">
<stop stop-color="#64C2DB"/>
<stop offset="0.307" stop-color="#7476ED"/>
<stop offset="0.604" stop-color="#C994DF"/>
<stop offset="1" stop-color="#E56F8C"/>
</linearGradient>
<clipPath id="clip0_123_334">
<rect width="125" height="40" fill="white"/>
</clipPath>
</defs>
</svg>
