<svg width="155" height="28" viewBox="0 0 155 28" fill="none" xmlns="http://www.w3.org/2000/svg">
<g clip-path="url(#clip0_123_363)">
<path d="M14.0911 28C21.8735 28 28.182 21.7322 28.182 14V4.2C28.182 3.08609 27.7366 2.0178 26.9439 1.23015C26.1511 0.442499 25.0759 0 23.9547 0L14.7956 0V6.1418C14.7956 7.5432 14.8816 8.995 15.6214 10.1878C16.151 11.0426 16.8594 11.7743 17.6987 12.3332C18.538 12.892 19.4884 13.265 20.4855 13.4267L20.7554 13.4701C20.8666 13.5079 20.9632 13.5793 21.0316 13.6743C21.1 13.7693 21.1367 13.8832 21.1367 14C21.1367 14.1168 21.1 14.2307 21.0316 14.3257C20.9632 14.4207 20.8666 14.4921 20.7554 14.5299L20.4855 14.5733C19.0287 14.8098 17.6833 15.4949 16.6395 16.532C15.5957 17.5691 14.9061 18.9057 14.6681 20.3532L14.6244 20.6213C14.5864 20.7318 14.5145 20.8278 14.4189 20.8957C14.3233 20.9636 14.2087 21.0002 14.0911 21.0002C13.9735 21.0002 13.8589 20.9636 13.7633 20.8957C13.6676 20.8278 13.5958 20.7318 13.5577 20.6213L13.5141 20.3532C13.3512 19.3625 12.9758 18.4182 12.4134 17.5844C11.8509 16.7505 11.1145 16.0466 10.2541 15.5204C9.05359 14.7854 7.59236 14.7 6.18186 14.7H0.0170898C0.385567 22.1067 6.54541 28 14.0911 28Z" fill="#0E1534"/>
<path d="M0 13.3H6.18168C7.59218 13.3 9.05341 13.2146 10.254 12.4796C11.1924 11.9051 11.9824 11.1202 12.5606 10.1878C13.3004 8.995 13.3864 7.5432 13.3864 6.1418V0H4.22727C3.10613 0 2.03091 0.442499 1.23814 1.23015C0.445372 2.0178 0 3.08609 0 4.2L0 13.3ZM32.7297 1.4C32.7297 1.7713 32.5812 2.1274 32.3169 2.38995C32.0527 2.6525 31.6943 2.8 31.3206 2.8C30.9469 2.8 30.5884 2.6525 30.3242 2.38995C30.0599 2.1274 29.9115 1.7713 29.9115 1.4C29.9115 1.0287 30.0599 0.672601 30.3242 0.410051C30.5884 0.1475 30.9469 0 31.3206 0C31.6943 0 32.0527 0.1475 32.3169 0.410051C32.5812 0.672601 32.7297 1.0287 32.7297 1.4ZM149.16 8.4728C153.099 8.4728 155 11.2063 155 14.3724V20.3189H150.878V15.078C150.878 13.643 150.351 12.4586 148.839 12.4586C147.328 12.4586 146.824 13.643 146.824 15.078V20.3182H142.702V15.078C142.702 13.643 142.198 12.4586 140.686 12.4586C139.175 12.4586 138.648 13.643 138.648 15.078V20.3182H134.527V14.3717C134.527 11.2056 136.427 8.4721 140.366 8.4721C142.519 8.4721 144.076 9.3149 144.786 10.7044C145.541 9.3149 147.191 8.4714 149.16 8.4714V8.4728ZM127.119 16.674C128.447 16.674 129.02 15.4665 129.02 14.0308V8.9278H133.141V14.532C133.141 17.8808 131.172 20.6605 127.119 20.6605C123.065 20.6605 121.096 17.8815 121.096 14.532V8.9278H125.218V14.0308C125.218 15.4658 125.79 16.674 127.119 16.674ZM115.035 20.6829C112.447 20.6829 110.775 19.7946 109.79 18.0635L112.767 16.4003C113.18 17.129 113.797 17.4937 114.828 17.4937C115.676 17.4937 116.065 17.1976 116.065 16.8329C116.065 15.4434 110.019 16.856 110.019 12.4369C110.019 10.2949 111.851 8.5638 114.966 8.5638C117.691 8.5638 119.179 9.8847 119.844 11.1608L116.866 12.8464C116.615 12.1632 115.836 11.753 115.057 11.753C114.462 11.753 114.141 12.0036 114.141 12.3452C114.141 13.7578 120.187 12.4593 120.187 16.7419C120.187 19.1338 117.828 20.6829 115.035 20.6829ZM100.632 25.5584H96.51V14.6006C96.51 11.1146 99.1436 8.5862 102.808 8.5862C106.381 8.5862 109.106 11.2973 109.106 14.6006C109.106 18.2455 106.678 20.6605 103.037 20.6605C102.189 20.6605 101.343 20.4099 100.632 20.0221V25.5584ZM102.808 16.8105C104.114 16.8105 104.984 15.8081 104.984 14.623C104.984 13.4162 104.114 12.4362 102.808 12.4362C101.502 12.4362 100.632 13.4162 100.632 14.6237C100.632 15.8081 101.502 16.8105 102.808 16.8105ZM92.3807 7.721C91.0294 7.721 89.9077 6.6045 89.9077 5.2605C89.9077 3.9165 91.0294 2.8 92.3807 2.8C93.732 2.8 94.8544 3.9165 94.8544 5.2605C94.8544 6.6045 93.732 7.721 92.3807 7.721ZM90.3199 8.9278H94.4422V20.3189H90.3199V8.9278ZM82.4107 20.6605C78.8379 20.6605 76.1127 17.927 76.1127 14.6006C76.1127 11.2973 78.8379 8.5638 82.4107 8.5638C85.9834 8.5638 88.7086 11.2973 88.7086 14.6006C88.7086 17.927 85.9834 20.6605 82.4107 20.6605ZM82.4107 16.8105C83.7162 16.8105 84.5863 15.8081 84.5863 14.623C84.5863 13.4162 83.7162 12.4138 82.4107 12.4138C81.1052 12.4138 80.235 13.4162 80.235 14.623C80.235 15.8081 81.1052 16.8105 82.4107 16.8105ZM68.3289 25.9C65.4896 25.9 63.4281 24.647 62.3748 22.414L65.7869 20.5919C66.1533 21.3668 66.8402 22.1641 68.2599 22.1641C69.7493 22.1641 70.7335 21.2296 70.8484 19.5895C70.2988 20.0683 69.428 20.4323 68.1232 20.4323C64.9394 20.4323 62.3741 17.9949 62.3741 14.5775C62.3741 11.2749 65.1 8.5862 68.6728 8.5862C72.3371 8.5862 74.9707 11.1153 74.9707 14.6006V19.1114C74.9707 23.212 72.1074 25.9 68.3289 25.9ZM68.6037 16.583C69.8402 16.583 70.7793 15.7395 70.7793 14.4865C70.7793 13.2566 69.8409 12.4362 68.6037 12.4362C67.3898 12.4362 66.4281 13.2566 66.4281 14.4872C66.4281 15.7402 67.3898 16.5823 68.6037 16.5823V16.583ZM55.3822 20.6605C51.8095 20.6605 49.0836 17.927 49.0836 14.6006C49.0836 11.2973 51.8095 8.5638 55.3822 8.5638C58.9543 8.5638 61.6801 11.2973 61.6801 14.6006C61.6801 17.927 58.955 20.6605 55.3822 20.6605ZM55.3822 16.8105C56.6877 16.8105 57.5578 15.8081 57.5578 14.623C57.5578 13.4162 56.6877 12.4138 55.3822 12.4138C54.0767 12.4138 53.2066 13.4162 53.2066 14.623C53.2066 15.8081 54.0767 16.8105 55.3822 16.8105ZM41.5773 4.942V16.4458H48.4023V20.3189H41.0045C38.3942 20.3189 37.3409 18.9518 37.3409 16.7874V4.942H41.5773Z" fill="#0E1534"/>
</g>
<defs>
<clipPath id="clip0_123_363">
<rect width="155" height="28" fill="white"/>
</clipPath>
</defs>
</svg>
