<svg width="143" height="34" viewBox="0 0 143 34" fill="none" xmlns="http://www.w3.org/2000/svg">
<g clip-path="url(#clip0_123_354)">
<path fill-rule="evenodd" clip-rule="evenodd" d="M8.47406 2.125V34H0V2.125H8.47406Z" fill="#283841"/>
<path fill-rule="evenodd" clip-rule="evenodd" d="M12.7109 2.125H30.7184C36.5685 2.125 41.3109 6.88197 41.3109 12.75C41.3109 18.6181 36.5685 23.375 30.7184 23.375H21.185V34H12.7109V2.125ZM21.185 14.875H30.7184C31.8884 14.875 32.8369 13.9236 32.8369 12.75C32.8369 11.5764 31.8884 10.625 30.7184 10.625H21.185V14.875Z" fill="#283841"/>
<path fill-rule="evenodd" clip-rule="evenodd" d="M73.0888 2.125V18.5938C73.0888 22.408 76.1713 25.5 79.974 25.5C83.7766 25.5 86.8593 22.408 86.8593 18.5938V2.125H95.3335V18.5938C95.3335 27.1024 88.4568 34 79.974 34C71.4913 34 64.6147 27.1024 64.6147 18.5938V2.125H73.0888Z" fill="#283841"/>
<path fill-rule="evenodd" clip-rule="evenodd" d="M44.4887 17C44.4887 8.78475 51.1281 2.125 59.3183 2.125H61.4368V10.625H59.3183C55.8082 10.625 52.9628 13.4792 52.9628 17V18.0625C52.9628 26.8645 45.8491 34 37.0739 34H36.0146V25.5H37.0739C41.169 25.5 44.4887 22.1701 44.4887 18.0625V17Z" fill="#283841"/>
<path d="M143 3.1875C143 4.94791 141.578 6.375 139.822 6.375C138.067 6.375 136.645 4.94791 136.645 3.1875C136.645 1.42709 138.067 0 139.822 0C141.578 0 143 1.42709 143 3.1875Z" fill="#283841"/>
<path d="M104.432 34L108.476 17.0154L111.482 27.2334C113.275 33.3277 121.881 33.3277 123.674 27.2334L126.679 17.0154L130.723 34H139.435L133.077 7.29257C131.565 0.941323 122.642 0.706164 120.799 6.96907L117.578 17.9208L114.356 6.96908C112.514 0.7062 103.59 0.94129 102.078 7.29256L95.7202 34H104.432Z" fill="#283841"/>
</g>
<defs>
<clipPath id="clip0_123_354">
<rect width="143" height="34" fill="white"/>
</clipPath>
</defs>
</svg>
